<?xml version="1.0" encoding="UTF-8"?>
<!DOCTYPE svg PUBLIC "-//W3C//DTD SVG 1.1//EN" "http://www.w3.org/Graphics/SVG/1.1/DTD/svg11.dtd">
<!-- Creator: CorelDRAW X7 -->
<svg xmlns="http://www.w3.org/2000/svg" xml:space="preserve" width="135.45mm" height="135.45mm" version="1.1" style="shape-rendering:geometricPrecision; text-rendering:geometricPrecision; image-rendering:optimizeQuality; fill-rule:evenodd; clip-rule:evenodd"
viewBox="0 0 11139 11139"
 xmlns:xlink="http://www.w3.org/1999/xlink">
 <defs>
  <style type="text/css">
 
    .fil0 {fill:#e13535}
 
  </style>
 </defs>
 <g id="Layer_x0020_1">
  <metadata id="CorelCorpID_0Corel-Layer"/>
  <g id="_386955640">
   <path class="fil0" d="M7854 696c0,322 197,492 364,658 125,125 424,395 506,517l-6483 0c-345,0 -762,-37 -1032,56 -549,190 -633,1043 -19,1300 252,105 694,58 1029,58l6527 0c-82,123 -381,392 -506,517 -166,165 -386,325 -386,636 0,468 387,805 861,709 225,-45 347,-188 482,-323l1229 -1229c250,-250 713,-629 713,-941 0,-264 -17,-353 -186,-553l-156 -149c-67,-61 -86,-107 -153,-174 -216,-215 -436,-418 -647,-637 -17,-18 -15,-17 -31,-33l-196 -196c-3,-3 -8,-8 -11,-11 -3,-3 -8,-8 -11,-11l-609 -609c-236,-228 -327,-281 -654,-281 -314,0 -631,330 -631,696z"/>
   <path class="fil0" d="M0 8485c0,451 144,503 506,864l1588 1589c121,123 278,188 436,201l115 0c171,-14 335,-87 450,-212 90,-97 190,-303 190,-484 0,-524 -620,-801 -870,-1175 2067,0 4133,0 6200,0 484,0 1348,125 1381,-702 12,-306 -171,-504 -375,-630 -211,-130 -639,-82 -962,-82 -2082,0 -4163,0 -6244,0 229,-342 870,-681 870,-1153 0,-473 -386,-802 -864,-713 -270,50 -662,509 -893,740l-1229 1229c-119,119 -299,304 -299,528z"/>
  </g>
 </g>
</svg>
