<?xml version="1.0" encoding="UTF-8"?>
<!DOCTYPE svg PUBLIC "-//W3C//DTD SVG 1.1//EN" "http://www.w3.org/Graphics/SVG/1.1/DTD/svg11.dtd">
<!-- Creator: CorelDRAW X7 -->
<svg xmlns="http://www.w3.org/2000/svg" xml:space="preserve" width="111.864mm" height="24.7142mm" version="1.1" style="shape-rendering:geometricPrecision; text-rendering:geometricPrecision; image-rendering:optimizeQuality; fill-rule:evenodd; clip-rule:evenodd"
viewBox="0 0 11186 2471"
 xmlns:xlink="http://www.w3.org/1999/xlink">
 <defs>
  <style type="text/css">

    .str1 {stroke:#EA5B21;stroke-width:16.93}
    .str2 {stroke:white;stroke-width:16.93}
    .str0 {stroke:white;stroke-width:7.62}
    .fil7 {fill:none}
    .fil13 {fill:#EA5B21}
    .fil16 {fill:#383334}
    .fil17 {fill:#959596}
    .fil11 {fill:#C5091C}
    .fil10 {fill:#E93819}
    .fil18 {fill:#E93819}
    .fil14 {fill:#EC5614}
    .fil0 {fill:#FD5105}
    .fil9 {fill:#FF6600}
    .fil15 {fill:#FF6600}
    .fil12 {fill:white}
    .fil8 {fill:#131515;fill-rule:nonzero}
    .fil6 {fill:#C5091C;fill-rule:nonzero}
    .fil3 {fill:#E93819;fill-rule:nonzero}
    .fil2 {fill:#E93819;fill-rule:nonzero}
    .fil4 {fill:#FD5105;fill-rule:nonzero}
    .fil5 {fill:#FF6600;fill-rule:nonzero}
    .fil1 {fill:white;fill-rule:nonzero}

  </style>
 </defs>
 <g id="Layer_x0020_1">
  <metadata id="CorelCorpID_0Corel-Layer"/>
  <g id="_357764448">
   <polygon class="fil0" points="2246,1549 2338,1549 2347,1814 2235,1814 "/>
   <path class="fil1" d="M2141 2374l-2134 0c-4,0 -7,-3 -7,-7 0,-4 3,-7 7,-7l2134 0c3,0 6,3 6,7 0,4 -3,7 -6,7z"/>
   <path class="fil2" d="M1374 1078c-4,0 -7,-3 -7,-7l0 -50c0,-3 3,-7 7,-7 3,0 6,4 6,7l0 50c0,4 -3,7 -6,7z"/>
   <path class="fil2" d="M1425 1080c-3,0 -6,-3 -6,-7l0 -52c0,-3 3,-7 6,-7 4,0 7,4 7,7l0 52c0,4 -3,7 -7,7z"/>
   <path class="fil2" d="M1478 1080c-3,0 -7,-3 -7,-7l0 -50c0,-4 4,-7 7,-7 4,0 7,3 7,7l0 50c0,4 -3,7 -7,7z"/>
   <path class="fil2" d="M1531 1081c-4,0 -7,-3 -7,-7l0 -50c0,-4 3,-7 7,-7 4,0 7,3 7,7l0 50c0,4 -3,7 -7,7z"/>
   <path class="fil1" d="M1864 1149l-823 0c-4,0 -7,-3 -7,-7l0 -189c0,-3 3,-6 7,-6l823 0c3,0 7,3 7,6l0 189c0,4 -4,7 -7,7zm-816 -14l0 0 809 0 0 -175 -809 0 0 175z"/>
   <path class="fil1" d="M1670 899l-435 0c-3,0 -7,3 -7,7l0 47c0,4 4,7 7,7l435 0c3,0 6,-3 6,-7l0 -47c0,-4 -3,-7 -6,-7zm-428 48l0 0 0 -34 421 0 0 34 -421 0z"/>
   <g>
    <path class="fil1" d="M1543 852l-181 0c-4,0 -7,3 -7,6l0 48c0,4 3,7 7,7l181 0c4,0 7,-3 7,-7l0 -48c0,-3 -3,-6 -7,-6zm-175 47l0 0 0 -34 169 0 0 34 -169 0z"/>
    <polygon class="fil3" points="1537,865 1537,899 1368,899 1368,865 "/>
   </g>
   <path class="fil1" d="M1951 1232l-998 0c-4,0 -7,-4 -7,-7l0 -83c0,-4 3,-7 7,-7l998 0c3,0 6,3 6,7l0 83c0,3 -3,7 -6,7zm-991 -14l0 0 984 0 0 -69 -984 0 0 69z"/>
   <path class="fil1" d="M1979 1341l-1053 0c-4,0 -7,-3 -7,-6l0 -110c0,-4 3,-7 7,-7l1053 0c4,0 7,3 7,7l0 110c0,3 -3,6 -7,6zm-1046 -13l0 0 1039 0 0 -96 -1039 0 0 96z"/>
   <path class="fil1" d="M1967 1446l-1053 0c-4,0 -7,-3 -7,-7l0 -66c0,-4 3,-7 7,-7l1053 0c4,0 7,3 7,7l0 66c0,4 -3,7 -7,7zm-1047 -14l0 0 1040 0 0 -53 -1040 0 0 53z"/>
   <path class="fil1" d="M1211 1432l-297 0c-4,0 -7,3 -7,7l0 927c0,3 3,6 7,6l297 0c4,0 7,-3 7,-6l0 -927c0,-4 -3,-7 -7,-7zm-7 927l0 0 -284 0 0 -913 284 0 0 913z"/>
   <path class="fil4" d="M2010 1379l-1115 0c-2,0 -4,0 -5,-2l-2 -1 -29 -35c-1,-2 -1,-3 -1,-5 0,-4 3,-8 7,-8l1171 0c2,0 4,1 5,2l1 1c3,3 3,7 1,10l-27 33c-1,3 -3,5 -6,5zm0 -8l0 0 1 0 -1 0zm-1112 -5l0 0 1108 0 18 -24 -1146 0 20 24z"/>
   <path class="fil1" d="M1667 1446l0 146c2,6 4,12 6,19 0,1 0,2 1,3 0,3 1,7 2,10 0,1 0,2 1,4 1,6 2,13 2,20 1,2 1,3 1,5 0,2 0,4 0,6 0,1 0,2 0,3 0,1 0,3 0,4 0,2 1,3 1,5l0 -225 -14 0zm307 -13l0 0c-1,0 -2,-1 -3,-1l-297 0c-4,0 -7,3 -7,7l0 927c0,3 3,6 7,6l297 0c4,0 7,-3 7,-6l0 -927c0,-3 -2,-5 -4,-6zm-10 13l0 0 0 913 -283 0 0 -913 283 0zm-297 0l0 0 0 146c2,6 4,12 6,19 0,1 0,2 1,3 0,3 1,7 2,10 0,1 0,2 1,4 1,6 2,13 2,20 1,2 1,3 1,5 0,2 0,4 0,6 0,1 0,2 0,3 0,1 0,3 0,4 0,2 1,3 1,5l0 -225 -14 0z"/>
   <g>
    <path class="fil1" d="M1063 1469c-34,0 -61,27 -61,61 0,34 27,61 61,61 33,0 60,-27 60,-61 0,-34 -27,-61 -60,-61zm0 108l0 0c-26,0 -48,-21 -48,-47 0,-26 22,-47 48,-47 26,0 46,20 46,47 0,27 -20,47 -46,47z"/>
    <path class="fil5" d="M1109 1530c0,27 -20,47 -46,47 -26,0 -48,-21 -48,-47 0,-26 22,-47 48,-47 26,0 46,20 46,47z"/>
   </g>
   <g>
    <path class="fil1" d="M1835 1469c-33,0 -61,27 -61,61 0,34 28,61 61,61 34,0 60,-27 60,-61 0,-34 -26,-61 -60,-61zm0 108l0 0c-26,0 -47,-21 -47,-47 0,-26 21,-47 47,-47 26,0 46,20 46,47 0,27 -20,47 -46,47z"/>
    <path class="fil3" d="M1881 1530c0,27 -20,47 -46,47 -26,0 -47,-21 -47,-47 0,-26 21,-47 47,-47 26,0 46,20 46,47z"/>
   </g>
   <path class="fil4" d="M1603 1101l-303 0c-3,0 -6,-3 -6,-6l0 -94c0,-4 3,-7 6,-7l303 0c4,0 7,3 7,7l0 94c0,3 -3,6 -7,6zm-296 -13l0 0 289 0 0 -80 -289 0 0 80z"/>
   <path class="fil3" d="M1215 1096c-27,0 -49,-22 -49,-49 0,-27 22,-49 49,-49 27,0 49,22 49,49 0,27 -22,49 -49,49zm0 -84l0 0c-20,0 -35,16 -35,35 0,20 15,35 35,35 19,0 35,-15 35,-35 0,-19 -16,-35 -35,-35z"/>
   <path class="fil2" d="M1691 1096c-27,0 -49,-22 -49,-49 0,-27 22,-49 49,-49 27,0 49,22 49,49 0,27 -22,49 -49,49zm0 -84l0 0c-20,0 -35,15 -35,35 0,20 15,35 35,35 20,0 36,-15 36,-35 0,-19 -16,-35 -36,-35z"/>
   <path class="fil1" d="M1159 1686l-192 0c-4,0 -7,-3 -7,-7 0,-3 3,-7 7,-7l192 0c4,0 7,4 7,7 0,4 -3,7 -7,7z"/>
   <path class="fil3" d="M1163 1895l-199 0c-4,0 -7,-3 -7,-7 0,-4 3,-7 7,-7l199 0c4,0 7,3 7,7 0,4 -3,7 -7,7z"/>
   <path class="fil5" d="M1161 2264l-200 0c-4,0 -7,-3 -7,-7 0,-4 3,-7 7,-7l200 0c3,0 6,3 6,7 0,4 -3,7 -6,7z"/>
   <path class="fil1" d="M1163 1618l-202 0c-4,0 -7,3 -7,7l0 741c0,3 3,6 7,6l202 0c4,0 7,-3 7,-6l0 -741c0,-4 -3,-7 -7,-7zm-195 741l0 0 0 -727 189 0 0 727 -189 0z"/>
   <g>
    <path class="fil1" d="M1127 1735l-131 0c-3,0 -6,3 -6,7l0 76c0,3 3,6 6,6l131 0c3,0 6,-3 6,-6l0 -76c0,-4 -3,-7 -6,-7zm-7 76l0 0 -117 0 0 -63 117 0 0 63z"/>
    <polygon class="fil3" points="1120,1748 1120,1811 1003,1811 1003,1748 "/>
   </g>
   <path class="fil1" d="M1922 1686l-197 0c-3,0 -6,-3 -6,-7 0,-3 3,-7 6,-7l197 0c4,0 7,4 7,7 0,4 -3,7 -7,7z"/>
   <path class="fil5" d="M1923 1895l-200 0c-4,0 -7,-3 -7,-7 0,-4 3,-7 7,-7l200 0c4,0 7,3 7,7 0,4 -3,7 -7,7z"/>
   <path class="fil3" d="M1923 2264l-198 0c-3,0 -6,-3 -6,-7 0,-4 3,-7 6,-7l198 0c4,0 7,3 7,7 0,4 -3,7 -7,7z"/>
   <path class="fil1" d="M1923 1618l-200 0c-4,0 -7,3 -7,7l0 741c0,3 3,6 7,6l200 0c4,0 7,-3 7,-6l0 -741c0,-4 -3,-7 -7,-7zm-194 741l0 0 0 -727 188 0 0 727 -188 0z"/>
   <g>
    <path class="fil1" d="M1888 1735l-130 0c-4,0 -7,3 -7,7l0 76c0,3 3,6 7,6l130 0c4,0 7,-3 7,-6l0 -76c0,-4 -3,-7 -7,-7zm-7 76l0 0 -116 0 0 -63 116 0 0 63z"/>
    <polygon class="fil5" points="1881,1748 1881,1811 1765,1811 1765,1748 "/>
   </g>
   <path class="fil1" d="M1474 1535l-58 0c-4,0 -7,-2 -7,-6l-11 -89c0,-2 1,-4 2,-5 1,-2 3,-3 5,-3l80 0c2,0 4,1 5,3 1,1 2,3 2,5l-11 89c-1,4 -3,6 -7,6zm-52 -13l0 0 46 0 9 -76 -64 0 9 76z"/>
   <path class="fil1" d="M1674 2372l-463 0c-4,0 -7,-3 -7,-6l0 -695c0,-132 107,-239 239,-239 131,0 238,107 238,239l0 695c0,3 -4,6 -7,6zm-456 -13l0 0 449 0 0 -688c0,-124 -101,-225 -224,-225 -124,0 -225,101 -225,225l0 688z"/>
   <path class="fil1" d="M1623 2374l-362 0c-4,0 -7,-3 -7,-7l0 -680c0,-90 68,-170 157,-184 3,0 7,2 7,6 1,3 -1,7 -5,7 -83,14 -145,87 -145,171l0 673 349 0 0 -673c0,-81 -59,-152 -139,-169 -4,-1 -6,-5 -5,-8 1,-4 4,-7 8,-6 86,19 149,96 149,183l0 680c0,4 -3,7 -7,7z"/>
   <path class="fil1" d="M2211 2370c0,0 0,0 0,0 -4,0 -7,-4 -7,-7l10 -261c0,-3 3,-7 7,-6 4,0 7,3 7,7l-10 260c0,4 -3,7 -7,7zm155 0l0 0c-4,0 -7,-3 -7,-7l-7 -260c0,-4 3,-7 7,-7 0,0 0,0 0,0 4,0 7,3 7,6l7 261c0,4 -3,7 -7,7 0,0 0,0 0,0zm-7 -282l0 0c-3,0 -7,-3 -7,-7l-6 -252c0,-4 2,-7 6,-7 4,0 7,3 7,6l7 253c0,3 -3,6 -7,7 0,0 0,0 0,0zm-138 0l0 0c0,0 0,0 0,0 -4,-1 -7,-4 -7,-7l8 -253c0,-3 3,-6 7,-6 0,0 0,0 0,0 4,0 7,3 7,7l-8 252c-1,4 -4,7 -7,7zm9 -272l0 0c0,0 0,0 0,0 -4,0 -7,-3 -7,-7l10 -258c0,-3 3,-6 7,-6 0,0 0,0 0,0 4,0 7,3 7,7l-10 258c0,3 -3,6 -7,6zm122 0l0 0c-3,0 -6,-3 -6,-6l-9 -258c0,-4 3,-7 7,-7 0,0 0,0 0,0 4,0 7,3 7,6l8 258c0,4 -3,7 -6,7 0,0 -1,0 -1,0zm-8 -275l0 0c-3,0 -6,-3 -7,-7l-2 -91c0,-3 3,-6 6,-7 4,0 7,3 7,7l3 91c0,4 -3,7 -7,7 0,0 0,0 0,0zm-103 0l0 0c-4,0 -7,-3 -7,-7l0 -91c0,-4 3,-7 7,-7 4,0 7,3 7,7l0 91c0,4 -3,7 -7,7z"/>
   <path class="fil1" d="M2274 1372c0,0 0,0 0,0 0,1 -1,1 -1,1 -33,17 -26,46 -25,49 0,2 0,4 -1,5 0,2 -2,3 -4,4 -1,0 -1,0 -2,0 -3,0 -5,-2 -6,-4 0,0 0,-1 0,-1 -5,-15 -3,-44 28,-63 1,0 2,-1 3,-2 4,-1 8,0 10,3 1,3 0,6 -2,8z"/>
   <path class="fil1" d="M2268 1374c-3,0 -5,-2 -6,-5 -1,-3 1,-7 4,-8 0,0 11,-4 19,-13 2,-3 7,-3 9,-1 3,3 4,7 1,10 -11,12 -24,16 -25,17 0,0 -1,0 -2,0z"/>
   <path class="fil1" d="M2314 1374c-1,0 -2,0 -3,-1 -1,-1 -17,-9 -24,-16 -3,-2 -3,-7 0,-9 2,-3 6,-3 9,0 5,4 17,11 21,13 4,2 5,6 3,9 -1,3 -3,4 -6,4z"/>
   <path class="fil1" d="M2318 1369c-2,3 -5,4 -8,3 -1,0 -1,0 -1,0 0,0 0,0 0,0 -1,-1 -2,-1 -3,-1l0 0c-12,-5 -26,-1 -32,1 0,0 -1,1 -1,1 0,0 0,0 0,0 -1,0 -2,0 -2,0 0,0 0,1 0,1 0,0 -1,0 -1,0 0,0 0,0 -1,0 0,0 0,0 -1,0 0,0 0,0 -1,0 0,0 0,0 -1,0 0,0 0,0 0,-1 -1,0 -1,0 -1,0 0,0 0,0 -1,0 0,0 0,-1 0,-1 -1,0 -1,0 -1,-1 0,0 0,0 0,0 0,0 -1,0 -1,-1 0,0 0,0 0,0 0,0 0,0 0,-1 0,0 0,0 0,0 0,0 0,0 0,-1 -1,0 -1,0 -1,-1 0,0 0,0 0,0 0,0 0,0 1,-1 0,0 0,-1 0,-1 0,0 0,-1 0,-1 0,0 1,0 1,-1 0,0 0,0 0,-1 1,0 1,0 1,0 0,0 0,0 0,0 0,0 1,-1 1,-1 0,0 0,0 0,0 1,0 1,0 1,0 0,0 0,0 1,0 0,0 0,0 0,0 0,0 0,-1 0,-1 0,0 1,0 1,0 3,-1 10,-3 17,-4 0,0 0,0 0,0 4,-1 7,-1 11,-1 1,0 1,0 2,0 5,1 11,2 17,5 1,0 2,2 3,3 1,2 1,4 0,6z"/>
   <path class="fil1" d="M2348 1426c0,0 0,1 0,1 -1,2 -4,4 -6,4 -1,0 -1,0 -2,0 -2,-1 -4,-2 -5,-4 0,-1 0,-3 0,-4 7,-33 -26,-50 -26,-50 -2,0 -2,-1 -3,-2l0 0c0,0 0,-1 0,-1 -1,-2 -1,-4 0,-6 1,-3 5,-5 9,-3 1,1 2,1 3,2 1,0 2,1 3,2 14,9 34,31 27,61z"/>
   <path class="fil1" d="M2290 1346c-4,0 -8,-4 -8,-9 0,-1 1,-3 2,-4l1 -2c4,-4 11,0 12,2 2,1 2,3 2,4 0,1 0,9 -9,9zm0 -6l0 0 -2 2c0,1 2,1 2,1l0 -3zm3 -3l0 0 2 0c0,-2 -2,-5 -4,-5l0 0c-1,0 -1,0 -1,0l0 0c0,0 0,0 0,0l0 5 0 -1 0 0 0 1 0 0 0 -1 1 1 2 0zm-3 -5l0 0c-2,0 -4,3 -4,5l4 0 0 -5z"/>
   <path class="fil1" d="M2291 1351c-9,0 -9,-7 -9,-8 0,-1 0,-8 9,-8 5,0 8,3 8,8 0,5 -3,8 -8,8zm2 -9l0 0 -1 6c1,0 3,-2 3,-5 0,-3 -2,-5 -3,-5l0 4 1 0zm-2 2l0 0 0 0 0 0zm0 0l0 0 0 0 0 0zm0 -7l0 0 0 6 0 -1 0 -5c0,0 0,0 0,0zm0 0l0 0 0 5 1 -4c0,0 -1,0 -1,-1z"/>
   <path class="fil1" d="M2291 1358c-7,0 -9,-5 -9,-8 0,-7 5,-10 9,-10 5,0 10,4 10,10 0,1 -1,3 -2,4 -1,1 -4,4 -8,4zm-4 -8l0 0c0,2 2,4 4,4 2,0 4,-3 4,-5 0,-3 -2,-5 -4,-5l0 0c0,0 -1,0 -2,1l2 2 0 3 -4 0zm7 0l0 0 -3 0 0 -3 3 3z"/>
   <path class="fil1" d="M2290 1343c-1,0 -1,0 -2,0 -3,-1 -6,-5 -5,-9l2 -5c1,-4 4,-6 8,-5 4,1 6,5 5,8l-1 6c-1,3 -4,5 -7,5z"/>
   <path class="fil1" d="M3253 1115c-1,4 -4,8 -6,12 -18,27 -59,54 -104,84 -2,1 -3,1 -5,2 -18,12 -37,25 -56,38 -95,69 -185,161 -128,310 1,5 3,9 5,14 8,18 18,38 31,58 0,1 0,1 1,2 0,1 0,1 1,2 0,3 -1,6 -3,7 -2,1 -3,1 -4,1 -2,0 -4,-1 -5,-2 -1,-1 -1,-1 -1,-1 0,0 0,-1 -1,-2 -126,-203 -18,-318 96,-399 0,-1 1,-1 1,-1 20,-14 41,-28 60,-41 48,-31 90,-59 104,-86 1,-1 1,-2 2,-3 0,-1 0,-2 1,-2 0,0 0,-1 0,-1 2,-1 3,-1 4,-1 1,-1 2,-1 2,0 0,0 1,0 1,0 0,0 0,0 1,0 1,0 2,1 2,2 1,0 1,1 1,1 0,0 0,0 0,1 0,0 0,0 0,0 1,1 1,3 0,5z"/>
   <path class="fil1" d="M3516 1638c0,1 -1,2 -2,2 0,1 0,2 -1,2 -1,2 -3,3 -5,3 -2,0 -3,0 -4,-1 0,0 0,0 -1,0 -2,-2 -3,-6 -1,-9 0,-1 1,-1 1,-2 13,-20 23,-40 31,-58 1,-5 3,-9 5,-14 52,-137 -20,-226 -106,-293 -24,-18 -49,-35 -73,-51 -3,-2 -6,-4 -9,-6 -46,-30 -86,-57 -104,-84 -2,-3 -4,-6 -5,-9 0,-1 -1,-2 -1,-3 -1,-2 -1,-4 0,-5 0,-1 0,-2 1,-2 0,0 0,-1 0,-1 1,0 2,-1 2,-1 1,0 2,0 2,0 1,-1 2,-1 2,0 0,0 1,0 1,0 1,0 3,1 3,2 1,0 1,1 1,1 0,0 0,0 0,1 0,0 0,0 0,0 12,28 55,56 105,90 128,84 304,200 158,438z"/>
   <path class="fil1" d="M3510 1717l-518 0c-4,0 -7,-3 -7,-7 0,-3 3,-6 7,-6l518 0c4,0 7,3 7,6 0,4 -3,7 -7,7z"/>
   <path class="fil1" d="M2993 1641l0 718c0,0 0,1 0,1 -1,3 -3,6 -7,6 -3,0 -6,-3 -6,-6 0,0 0,-1 0,-1l0 -718c0,-3 3,-7 6,-7 2,0 4,1 6,3 1,1 1,3 1,4z"/>
   <path class="fil1" d="M3550 1568c0,4 -3,7 -7,7l-592 0c-4,0 -7,-3 -7,-7 0,-4 3,-7 7,-7l592 0c4,0 7,3 7,7z"/>
   <path class="fil1" d="M3508 1647l-523 0c-4,0 -7,-3 -7,-7 0,-4 3,-7 7,-7l523 0c3,0 6,3 6,7 0,4 -3,7 -6,7z"/>
   <path class="fil1" d="M3517 1641l0 718c0,0 0,1 0,1 -1,3 -3,6 -7,6 -3,0 -6,-3 -6,-6 0,0 -1,-1 -1,-1l0 -718c0,-3 4,-7 7,-7 1,0 1,1 2,1 2,0 3,1 4,3 1,1 1,2 1,3z"/>
   <path class="fil1" d="M3065 2366c-4,0 -7,-3 -7,-7l-1 -403c-2,-136 184,-199 192,-202 4,-1 7,1 8,4 2,4 0,8 -4,9 -7,3 -184,63 -182,189l1 403c0,4 -3,7 -7,7z"/>
   <path class="fil1" d="M3437 2372c-4,0 -7,-3 -7,-6l2 -410c0,-126 -176,-186 -183,-189 -4,-1 -6,-5 -4,-9 1,-3 5,-5 8,-4 8,3 192,66 192,202l-1 410c0,3 -3,6 -7,6z"/>
   <g>
    <path class="fil5" d="M3539 1561l-585 0c-57,-149 33,-241 128,-310 51,-26 105,-40 162,-40 68,0 134,20 189,57 86,67 158,156 106,293z"/>
    <path class="fil1" d="M3441 1257l-8 11c-55,-37 -121,-57 -189,-57 -57,0 -111,14 -162,40 0,1 -1,1 -2,1l-6 -11 0 0c0,-1 0,-1 1,-1 20,-11 41,-20 63,-27 34,-10 70,-15 106,-15 40,0 79,6 116,19 28,9 55,23 81,40z"/>
   </g>
   <path class="fil1" d="M3246 1119c-4,0 -7,-3 -7,-7l0 -69c0,-4 3,-7 7,-7 3,0 6,3 6,7l0 69c0,4 -3,7 -6,7z"/>
   <path class="fil1" d="M2795 1719c-2,0 -5,-2 -6,-4 -47,-75 10,-112 47,-137 14,-9 27,-18 30,-25 1,-3 5,-5 9,-4 3,2 5,6 4,9 -5,11 -18,20 -35,31 -39,26 -83,55 -43,119 2,3 1,8 -2,10 -2,0 -3,1 -4,1z"/>
   <path class="fil1" d="M2950 1719c-2,0 -3,-1 -4,-1 -3,-2 -4,-7 -2,-10 40,-64 -4,-93 -43,-119 -17,-11 -31,-20 -35,-31 -1,-3 0,-7 4,-9 3,-1 7,1 9,4 2,7 15,16 29,25 38,25 94,62 47,137 -1,2 -3,4 -5,4z"/>
   <path class="fil1" d="M2769 1721c-3,0 -6,-2 -7,-6 0,-3 2,-7 6,-7 64,-9 131,-9 204,0 4,0 7,4 6,7 0,4 -4,6 -7,6 -72,-9 -138,-9 -201,0 0,0 -1,0 -1,0z"/>
   <path class="fil1" d="M2924 1606c-29,-19 -63,-23 -99,-4l-6 -11c40,-22 79,-19 113,4l-8 11z"/>
   <path class="fil1" d="M2872 1563c-3,0 -7,-3 -7,-7l0 -21c0,-3 4,-6 7,-6 4,0 7,3 7,6l0 21c0,4 -3,7 -7,7z"/>
   <path class="fil1" d="M2777 1837c-3,0 -7,-3 -7,-7l0 -116c0,-3 4,-6 7,-6 4,0 7,3 7,6l0 116c0,4 -3,7 -7,7z"/>
   <path class="fil1" d="M2711 1850c-4,0 -7,-2 -7,-6 0,-4 2,-7 6,-7l109 -13 163 2c4,0 7,3 7,7 0,3 -3,6 -7,6l0 0 -163 -1 -107 12c-1,0 -1,0 -1,0z"/>
   <path class="fil1" d="M2989 1880c0,4 -3,7 -7,7l-163 0 -101 10 -7 1c0,0 0,0 0,0 -4,0 -7,-3 -7,-6 0,-1 0,-1 0,-1 0,-4 3,-7 6,-7l8 -1 101 -10 161 0 2 0c4,0 7,3 7,7z"/>
   <path class="fil1" d="M2718 1845l0 514c0,0 0,1 -1,1 0,3 -3,6 -6,6 -4,0 -6,-3 -7,-6 0,0 0,-1 0,-1l0 -514c0,0 0,-1 0,-1l0 0c0,-3 3,-6 7,-6 3,0 7,3 7,7z"/>
   <path class="fil5" d="M2841 1941c-1,0 -2,0 -3,0 -12,5 -62,25 -62,61l1 113 0 6c0,4 -2,6 -7,7 -3,0 -6,-3 -6,-6l0 -7 -2 -113c0,-47 62,-70 74,-74 1,0 1,0 1,0 1,-1 2,-1 3,0 0,0 0,0 0,0 1,0 1,0 1,0 2,1 3,2 4,4 1,4 -1,7 -4,9z"/>
   <path class="fil5" d="M2914 2002l0 119c0,4 -3,7 -6,7 -4,0 -7,-3 -7,-7l0 -119c0,-37 -52,-57 -63,-61 -1,0 -1,0 -1,0 -4,-1 -6,-5 -5,-9 1,-2 3,-4 5,-4 1,-1 2,-1 3,0 0,0 0,0 0,0 0,0 1,0 1,0 8,2 73,25 73,74z"/>
   <path class="fil3" d="M2770 2355c-3,0 -6,-3 -6,-7l-2 -108c0,-39 46,-60 74,-69 3,-1 7,1 8,4 2,4 0,7 -3,9 -20,6 -65,24 -65,56l1 108c0,4 -3,7 -6,7 0,0 0,0 -1,0z"/>
   <path class="fil3" d="M2908 2355c-4,0 -7,-3 -7,-7l0 -108c0,-38 -62,-56 -65,-56 -3,-1 -5,-5 -4,-9 1,-3 5,-6 8,-4 8,2 74,22 74,69l0 108c0,4 -3,7 -6,7z"/>
   <path class="fil1" d="M2363 1434c0,3 -3,6 -7,6l-130 0c-4,0 -7,-3 -7,-6 0,-4 3,-7 7,-7l130 0c4,0 7,3 7,7z"/>
   <path class="fil1" d="M2367 1549l-148 0c-3,0 -6,-3 -6,-7 0,-4 3,-7 6,-7l148 0c4,0 7,3 7,7 0,4 -3,7 -7,7z"/>
   <path class="fil1" d="M2380 1827l-176 0c-3,0 -6,-3 -6,-7 0,-3 3,-6 6,-6l176 0c3,0 6,3 6,6 0,4 -3,7 -6,7z"/>
   <path class="fil1" d="M2385 2100l-197 0c-4,0 -7,-3 -7,-7 0,-4 3,-7 7,-7l197 0c4,0 7,3 7,7 0,4 -3,7 -7,7z"/>
   <path class="fil1" d="M2604 2370c-4,0 -7,-3 -7,-7l-6 -210c0,-4 3,-7 7,-7 0,0 0,0 0,0 4,0 7,3 7,7l5 210c0,4 -3,7 -6,7 0,0 0,0 0,0zm-125 0l0 0c0,0 0,0 -1,0 -3,0 -6,-3 -6,-7l7 -211c0,-3 2,-6 7,-6 3,0 6,3 6,7l-7 210c0,4 -3,7 -6,7zm119 -228l0 0c-4,0 -7,-3 -7,-7l-5 -205c0,-3 3,-6 6,-7 1,0 1,0 1,0 3,0 6,3 6,7l6 205c0,4 -3,7 -7,7 0,0 0,0 0,0zm-111 0l0 0c0,0 0,0 0,0 -4,0 -7,-3 -7,-7l7 -205c0,-4 3,-7 7,-7 4,1 6,4 6,7l-6 205c-1,4 -4,7 -7,7zm7 -220l0 0c0,0 -1,0 -1,0 -3,0 -6,-3 -6,-7l8 -209c0,-4 3,-6 7,-6 4,0 7,3 7,7l-9 209c0,3 -3,6 -6,6zm99 0l0 0c-4,0 -7,-3 -7,-6l-7 -209c0,-4 3,-7 7,-7 3,0 7,2 7,6l6 209c1,4 -2,7 -6,7 0,0 0,0 0,0zm-7 -224l0 0c-4,0 -7,-3 -7,-6l-1 -74c0,-3 3,-7 6,-7 0,0 0,0 1,0 3,0 6,3 6,7l2 73c0,4 -3,7 -7,7 0,0 0,0 0,0zm-84 0l0 0c0,0 0,0 0,0 -4,0 -7,-3 -7,-7l1 -73c0,-4 3,-7 7,-7 0,0 0,0 0,0 4,0 7,4 7,7l-1 74c-1,3 -4,6 -7,6z"/>
   <path class="fil1" d="M2503 1610c-3,0 -5,-2 -6,-5 -5,-13 -4,-40 26,-54 4,-1 8,0 9,3 2,4 0,8 -3,9 -27,13 -20,36 -19,38 1,4 -1,8 -5,9 0,0 -1,0 -2,0z"/>
   <path class="fil1" d="M2525 1564c-3,0 -5,-2 -6,-4 -2,-4 0,-8 3,-9 0,0 9,-4 16,-11 2,-2 7,-3 9,0 3,3 3,7 0,10 -9,9 -19,13 -20,13 0,1 -1,1 -2,1z"/>
   <path class="fil1" d="M2561 1564c-1,0 -2,0 -3,-1 -1,-1 -14,-7 -20,-13 -3,-3 -3,-7 0,-10 2,-2 7,-3 9,0 4,4 13,9 17,11 4,2 5,6 4,9 -2,3 -4,4 -7,4z"/>
   <path class="fil1" d="M2559 1564c-2,0 -3,0 -4,-1 -11,-8 -27,0 -27,0 -3,2 -8,1 -9,-3 -2,-3 -1,-7 3,-9 1,0 23,-11 40,0 4,2 4,7 2,10 -1,2 -3,3 -5,3z"/>
   <path class="fil1" d="M2585 1610c-1,0 -1,0 -2,0 -4,-1 -6,-4 -5,-8 5,-26 -20,-38 -21,-39 -3,-1 -5,-5 -3,-9 2,-3 6,-5 9,-3 13,6 34,25 28,54 -1,3 -3,5 -6,5z"/>
   <path class="fil1" d="M2542 1541c-4,0 -8,-3 -8,-8 0,-4 3,-7 7,-7 4,0 10,3 10,7 0,5 -3,8 -9,8zm2 -8l0 0 4 0c0,-3 -2,-6 -5,-6l0 6 1 0zm-2 0l0 0 0 0 1 -6c0,0 0,0 0,0l-1 6z"/>
   <path class="fil1" d="M2542 1546c-5,0 -8,-4 -8,-8 0,-5 3,-8 8,-8 10,0 10,7 10,8 0,2 -1,4 -2,5 -1,1 -4,3 -8,3zm-4 -8l0 0c0,3 3,5 5,6 2,0 5,-3 5,-6 0,-3 -3,-5 -6,-5 0,0 -1,0 -2,0l5 5 -7 0z"/>
   <path class="fil1" d="M2542 1550c-5,0 -8,-3 -8,-8 0,-4 3,-8 8,-8 4,0 7,3 8,3 1,2 2,3 2,5 0,1 0,8 -10,8zm3 -8l0 0 -5 5c1,1 2,1 2,1 3,0 6,-2 6,-6l-3 0zm-3 1l0 0 0 1 0 -1 0 0zm0 0l0 0 0 1 1 -1 -1 0zm0 -1l0 0 1 0 0 -5c0,0 0,0 -1,0l0 5zm0 0l0 0 0 0 0 -5c0,0 0,0 0,0l0 5zm0 -5l0 0c-2,1 -4,3 -4,5l3 0 1 -5z"/>
   <path class="fil1" d="M2542 1538c-3,0 -6,-3 -6,-7l0 -4c0,-3 3,-6 6,-6 4,0 7,3 7,6l0 4c0,4 -3,7 -7,7z"/>
   <path class="fil1" d="M2597 1617l-107 0c-4,0 -7,-3 -7,-7 0,-4 3,-7 7,-7l107 0c3,0 7,3 7,7 0,4 -4,7 -7,7z"/>
   <path class="fil1" d="M2605 1705l-120 0c-3,0 -6,-3 -6,-7 0,-3 3,-7 6,-7l120 0c4,0 7,4 7,7 0,4 -3,7 -7,7z"/>
   <path class="fil1" d="M2614 1930l-141 0c-4,0 -7,-3 -7,-7 0,-3 3,-6 7,-6l141 0c4,0 7,3 7,6 0,4 -3,7 -7,7z"/>
   <path class="fil1" d="M2618 2151l-158 0c-4,0 -7,-3 -7,-6 0,-4 3,-7 7,-7l158 0c4,0 7,3 7,7 0,3 -3,6 -7,6z"/>
   <path class="fil1" d="M4132 2370c0,0 0,0 0,0 -4,0 -7,-3 -7,-7l6 -261c0,-3 3,-6 6,-6 0,0 0,0 1,0 3,0 6,3 6,7l-5 260c0,4 -3,7 -7,7zm153 0l0 0c-3,0 -6,-3 -6,-7l-9 -260c0,-4 3,-7 7,-7 0,0 0,0 0,0 4,0 7,3 7,6l8 261c0,4 -3,7 -6,7 0,0 -1,0 -1,0zm-146 -282l0 0c0,0 0,0 0,0 -4,0 -7,-4 -7,-7l5 -253c0,-3 3,-6 7,-6 4,0 7,3 7,7l-5 252c-1,4 -4,7 -7,7zm137 0l0 0c-4,0 -7,-3 -7,-7l-8 -252c0,-4 3,-7 7,-7 2,0 6,2 7,6l8 253c0,3 -3,6 -7,7 0,0 0,0 0,0zm-130 -272l0 0c-1,0 -1,0 -1,0 -3,0 -6,-3 -6,-7l7 -257c0,-4 3,-7 6,-7 0,0 0,0 1,0 3,0 6,3 6,7l-7 258c0,3 -3,6 -6,6zm120 0l0 0c-3,0 -6,-3 -6,-6l-10 -258c0,-4 3,-7 7,-7 0,0 0,0 0,0 3,0 6,3 7,6l9 258c0,4 -3,7 -6,7 0,0 -1,0 -1,0zm-114 -275l0 0c0,0 0,0 0,0 -4,0 -7,-3 -6,-7l2 -91c0,-4 3,-7 7,-7 4,1 7,4 7,7l-3 91c0,4 -3,7 -7,7zm105 0l0 0c-4,0 -7,-3 -7,-7l-1 -91c0,-3 3,-7 6,-7 0,0 0,0 0,0 4,0 7,3 7,7l2 91c0,4 -3,7 -7,7 0,0 0,0 0,0z"/>
   <path class="fil1" d="M4262 1426c0,0 0,1 0,1 -1,2 -4,4 -7,4 0,0 -1,0 -1,0 -2,-1 -4,-2 -5,-4 0,-1 0,-3 0,-5 0,-1 9,-31 -25,-49 -1,0 -1,0 -1,-1 -1,0 -1,0 -1,0 -2,-2 -2,-5 -1,-8 2,-3 6,-4 9,-3 1,1 3,2 4,2l0 0c31,19 32,48 28,63z"/>
   <path class="fil1" d="M4228 1374c0,0 -1,0 -2,0 0,-1 -14,-5 -24,-17 -3,-3 -3,-7 0,-10 3,-2 7,-2 10,1 8,9 18,13 18,13 4,1 6,5 5,8 -1,3 -4,5 -7,5z"/>
   <path class="fil1" d="M4184 1374c-3,0 -5,-1 -6,-4 -2,-3 -1,-7 2,-9 0,0 15,-8 22,-14 3,-2 7,-2 10,1 2,3 2,7 -1,10 -9,7 -24,15 -24,15 -1,1 -2,1 -3,1z"/>
   <path class="fil1" d="M4235 1368c0,1 0,1 0,1 0,0 0,1 0,1 0,0 0,0 0,0 -1,0 -1,0 -1,1 0,0 0,0 0,0 0,0 0,0 0,0 -1,1 -1,1 -1,1 0,0 0,1 -1,1 0,0 0,0 0,0 -1,0 -1,0 -1,0 0,1 0,1 -1,1 0,0 0,0 -1,0 0,0 0,0 -1,0 0,0 0,0 -1,0 0,0 0,0 -1,0 0,0 0,0 0,-1 0,0 -1,0 -1,0 0,0 0,0 -1,0 0,0 0,0 0,0 0,0 -1,-1 -1,-1 -7,-2 -22,-6 -33,-1 0,0 0,0 0,0 0,1 0,1 -1,1 0,0 0,0 -1,0 -3,1 -6,0 -8,-3 -1,-2 -1,-5 1,-7 0,0 0,0 0,0 1,-1 1,-2 2,-2 5,-3 11,-4 16,-5 1,0 1,0 2,0 4,0 8,0 11,1 0,0 0,0 0,0 8,1 15,3 17,4 1,1 2,1 2,1 0,0 0,0 0,0 0,0 1,0 1,0 0,1 0,1 0,1 1,0 1,0 1,1 0,0 1,0 1,0 0,0 0,0 0,0 1,2 1,3 1,5z"/>
   <path class="fil1" d="M4190 1371c0,0 0,0 0,0 0,0 0,0 0,0 0,1 -1,2 -2,2 -1,1 -33,17 -26,50 0,1 0,3 -1,4 -1,2 -2,3 -5,4 0,0 -1,0 -1,0 -3,0 -5,-2 -6,-4 0,-1 -1,-1 -1,-1 -6,-32 15,-54 30,-63l0 0c1,0 2,-1 3,-1 0,0 0,0 0,0 0,-1 1,-1 1,-1 3,-2 7,0 9,3 1,2 1,5 -1,7z"/>
   <path class="fil1" d="M4207 1346c-5,0 -9,-4 -9,-9 0,-4 4,-8 9,-8 5,0 8,4 8,8 0,5 -3,9 -8,9zm-6 -8l0 0c0,5 11,6 11,-1l-5 1 0 1 0 0 0 -1 0 0 0 1 -6 -1z"/>
   <path class="fil1" d="M4207 1351c-9,0 -10,-7 -10,-8 0,-1 0,-8 10,-8 9,0 9,7 9,8 0,1 0,8 -9,8zm-1 -13l0 0c-2,0 -3,2 -3,5 0,3 2,5 4,5 1,0 4,-2 4,-5 0,-3 -2,-5 -4,-5l0 -1c0,0 0,0 0,0 -1,0 -1,0 -1,0l0 1z"/>
   <path class="fil1" d="M4207 1358c-6,0 -8,-3 -9,-4 -1,-1 -2,-3 -2,-4 0,-5 4,-10 11,-10 5,0 9,4 9,10 0,1 -1,3 -2,4 -1,1 -3,4 -7,4zm-4 -8l0 0c0,2 1,4 4,4 0,0 2,-2 2,-4l-6 0zm4 -6l0 0c0,0 -2,0 -2,1l1 1 1 -1 0 -1z"/>
   <path class="fil1" d="M4207 1343c-4,0 -7,-3 -7,-7l0 -5c0,-4 3,-7 7,-7 3,0 6,3 6,7l0 5c0,4 -3,7 -6,7z"/>
   <path class="fil1" d="M3700 1719c-1,0 -2,-1 -3,-1 -3,-2 -4,-7 -2,-10 39,-64 -5,-93 -44,-119 -17,-11 -30,-20 -34,-31 -2,-3 0,-7 3,-9 4,-1 8,1 9,4 3,7 16,16 30,25 37,25 94,62 47,137 -1,2 -3,4 -6,4z"/>
   <path class="fil1" d="M3546 1719c-3,0 -5,-2 -6,-4 -47,-75 10,-112 47,-137 14,-9 27,-18 30,-25 1,-3 5,-5 8,-4 4,2 6,6 4,9 -4,11 -17,20 -34,31 -39,26 -84,55 -44,119 2,3 1,8 -2,10 -1,0 -2,1 -3,1z"/>
   <path class="fil1" d="M3726 1721c0,0 -1,0 -1,0 -62,-9 -128,-8 -202,0 -3,0 -7,-2 -7,-6 -1,-3 2,-7 6,-7 74,-9 141,-9 205,0 4,0 6,4 6,7 -1,4 -4,6 -7,6z"/>
   <path class="fil1" d="M3571 1606l-7 -11c33,-22 73,-26 112,-4l-6 11c-36,-19 -70,-15 -99,4z"/>
   <path class="fil1" d="M3623 1563c-4,0 -7,-3 -7,-7l0 -21c0,-3 3,-6 7,-6 4,0 7,3 7,6l0 21c0,4 -3,7 -7,7z"/>
   <path class="fil1" d="M3718 1837c-4,0 -7,-3 -7,-7l0 -116c0,-3 3,-6 7,-6 4,0 7,3 7,6l0 116c0,4 -3,7 -7,7z"/>
   <path class="fil1" d="M3786 1849c0,0 -1,0 -1,0l-110 -12 -165 1 0 0c-3,0 -6,-3 -7,-7 0,-3 3,-7 7,-7l166 -1 111 12c3,1 6,4 6,8 -1,3 -4,6 -7,6z"/>
   <path class="fil1" d="M3793 1890c-1,4 -4,6 -7,6 0,0 -1,0 -1,0l-5 0 -105 -12 -158 1 -7 0 0 0c-3,0 -6,-3 -7,-6 0,-4 3,-7 7,-7l7 0 159 -2 104 12 7 1c3,0 6,4 6,7z"/>
   <path class="fil1" d="M3794 1843l0 515c0,0 0,1 -1,2 -1,3 -3,4 -6,4 -3,0 -5,-1 -6,-4 0,-1 -1,-2 -1,-2l0 -515c0,-3 3,-6 7,-6 2,0 3,0 4,1 2,1 3,3 3,5z"/>
   <path class="fil3" d="M3733 2002l-1 117 0 3c-1,3 -4,6 -7,6 0,0 0,0 0,0 -4,0 -7,-3 -7,-7l0 -2 1 -117c0,-36 -50,-56 -62,-61 -1,0 -2,0 -2,0 -4,-2 -6,-5 -5,-9 1,-2 3,-3 4,-4 1,0 1,0 1,0 0,0 1,0 1,0 0,0 0,-1 1,-1 0,0 1,1 1,1 0,0 1,0 1,0 12,4 74,27 74,74z"/>
   <path class="fil3" d="M3659 1941c0,0 -1,0 -2,0 -11,4 -63,24 -63,61l0 119c0,4 -3,7 -6,7 -4,0 -7,-3 -7,-7l0 -119c0,-50 67,-72 73,-74 1,0 1,0 1,0 0,0 1,0 1,0 0,0 0,-1 1,-1 0,0 1,1 1,1 2,0 5,2 5,4 1,4 -1,8 -4,9z"/>
   <path class="fil5" d="M3725 2355c0,0 0,0 0,0 -4,0 -7,-3 -7,-7l1 -109c0,-31 -44,-49 -64,-55l4 -13c28,9 74,30 74,69l-1 108c0,4 -4,7 -7,7z"/>
   <path class="fil5" d="M3588 2355c-4,0 -7,-3 -7,-7l0 -108c0,-47 66,-67 74,-69 4,-2 7,1 8,4 1,4 -1,8 -4,9 -3,0 -65,18 -65,56l0 108c0,4 -3,7 -6,7z"/>
   <path class="fil1" d="M4279 1434c0,3 -3,6 -7,6l-132 0c-4,0 -7,-3 -7,-6 0,-4 3,-7 7,-7l132 0c4,0 7,3 7,7z"/>
   <path class="fil1" d="M4277 1549l-148 0c-3,0 -7,-3 -7,-7 0,-4 4,-7 7,-7l148 0c4,0 7,3 7,7 0,4 -3,7 -7,7z"/>
   <path class="fil1" d="M4292 1827l-175 0c-4,0 -7,-3 -7,-7 0,-3 3,-6 7,-6l175 0c4,0 7,3 7,6 0,4 -3,7 -7,7z"/>
   <path class="fil1" d="M4308 2100l-196 0c-4,0 -7,-3 -7,-7 0,-4 3,-7 7,-7l196 0c4,0 7,3 7,7 0,4 -3,7 -7,7z"/>
   <path class="fil1" d="M3893 2370c0,0 0,0 0,0 -4,0 -7,-3 -7,-7l6 -210c0,-4 3,-7 6,-7 1,0 1,0 1,0 3,0 6,3 6,7l-5 210c0,4 -3,7 -7,7zm125 0l0 0c-4,0 -7,-3 -7,-7l-7 -210c0,-4 3,-7 7,-7 0,0 0,0 0,0 4,0 7,3 7,6l7 211c0,4 -3,7 -7,7 0,0 0,0 0,0zm-7 -228l0 0c-3,0 -6,-3 -7,-7l-6 -205c0,-3 2,-6 6,-7 4,0 7,3 7,7l7 205c0,4 -3,7 -7,7 0,0 0,0 0,0zm-111 0l0 0c0,0 0,0 0,0 -4,0 -7,-3 -7,-7l4 -205c0,-4 3,-7 7,-7 0,0 0,0 0,0 4,1 7,4 7,7l-4 205c0,4 -3,7 -7,7zm103 -220l0 0c-4,0 -7,-3 -7,-6l-8 -209c0,-4 3,-7 7,-7 4,0 7,2 7,6l8 209c0,4 -3,7 -7,7 0,0 0,0 0,0zm-98 0l0 0c0,0 0,0 0,0 -4,0 -7,-3 -7,-7l6 -209c0,-3 3,-6 7,-6 0,0 0,0 0,0 4,0 7,3 7,7l-6 208c0,4 -3,7 -7,7zm6 -224l0 0c0,0 0,0 -1,0 -3,0 -6,-3 -6,-7l3 -73c0,-4 3,-7 6,-7 1,0 1,0 1,0 3,1 6,4 6,7l-2 74c-1,3 -4,6 -7,6zm84 0l0 0c-4,0 -7,-3 -7,-6l-1 -74c0,-3 3,-7 6,-7 0,0 0,0 1,0 3,0 6,3 6,7l2 73c0,4 -3,7 -7,7 0,0 0,0 0,0z"/>
   <path class="fil1" d="M3995 1610c0,0 -1,0 -1,0 -4,-1 -6,-4 -6,-8 3,-18 -3,-31 -19,-39 -4,-1 -5,-6 -3,-9 1,-3 6,-5 9,-3 21,11 31,30 27,53 -1,4 -4,6 -7,6z"/>
   <path class="fil1" d="M3972 1564c-1,0 -2,0 -3,-1 0,0 -11,-4 -20,-13 -2,-3 -2,-7 0,-10 3,-2 7,-2 10,0 7,7 15,11 15,11 4,1 5,5 4,9 -1,2 -4,4 -6,4z"/>
   <path class="fil1" d="M3935 1564c-2,0 -5,-1 -6,-4 -2,-3 0,-7 3,-9 5,-2 14,-7 17,-11 3,-3 7,-2 10,0 3,3 3,7 0,10 -6,6 -19,12 -21,13 -1,1 -2,1 -3,1z"/>
   <path class="fil1" d="M3938 1564c-2,0 -5,-1 -6,-3 -2,-3 -1,-8 2,-10 18,-11 40,0 41,0 3,2 5,6 3,9 -2,4 -6,5 -9,3 0,0 -16,-7 -28,0 -1,1 -2,1 -3,1z"/>
   <path class="fil1" d="M3912 1610c-3,0 -6,-2 -7,-6 -5,-28 17,-47 28,-53 4,-2 8,0 10,3 1,3 0,8 -3,9 -1,1 -26,13 -21,39 0,4 -2,7 -6,8 0,0 -1,0 -1,0z"/>
   <path class="fil1" d="M3954 1541c-4,0 -8,-3 -8,-8 0,-4 3,-7 7,-7 4,0 9,3 9,7 0,5 -3,8 -8,8zm2 -8l0 0 4 0c0,-3 -2,-6 -6,-6l1 6 1 0zm-2 0l0 0 0 0 0 -6c0,0 0,0 0,0l0 6z"/>
   <path class="fil1" d="M3954 1546c-5,0 -8,-4 -8,-8 0,-5 3,-8 8,-8 5,0 8,3 8,8 0,4 -3,8 -8,8zm0 -13l0 0c-2,0 -5,2 -5,5l5 0 0 -1 6 1c0,-3 -3,-5 -6,-5z"/>
   <path class="fil1" d="M3954 1550c-9,0 -9,-7 -9,-8 0,-2 0,-3 2,-5 0,0 3,-3 7,-3 4,0 7,3 8,3 1,2 2,3 2,5 0,1 -1,8 -10,8zm0 -5l0 0 -2 2c1,1 3,1 4,0l-2 -2zm3 -3l0 0 1 0c0,-2 -2,-4 -3,-5l0 0c-1,0 -1,0 -1,0l0 0c-2,1 -4,3 -4,5l7 0z"/>
   <path class="fil1" d="M3954 1538c-4,0 -7,-3 -7,-7l0 -4c0,-3 3,-6 7,-6 4,0 7,3 7,6l0 4c0,4 -3,7 -7,7z"/>
   <path class="fil1" d="M4007 1617l-106 0c-3,0 -7,-3 -7,-7 0,-4 4,-7 7,-7l106 0c4,0 7,3 7,7 0,4 -3,7 -7,7z"/>
   <path class="fil1" d="M4013 1705l-121 0c-4,0 -7,-3 -7,-7 0,-3 3,-7 7,-7l121 0c3,0 6,4 6,7 0,4 -3,7 -6,7z"/>
   <path class="fil1" d="M4023 1930l-141 0c-3,0 -7,-3 -7,-7 0,-3 4,-6 7,-6l141 0c4,0 7,3 7,6 0,4 -3,7 -7,7z"/>
   <path class="fil1" d="M4037 2151l-159 0c-4,0 -7,-3 -7,-6 0,-4 3,-7 7,-7l159 0c4,0 7,3 7,7 0,3 -3,6 -7,6z"/>
   <path class="fil1" d="M4473 2374l-2406 0c-3,0 -6,-3 -6,-7 0,-4 3,-7 6,-7l2406 0c3,0 6,3 6,7 0,4 -3,7 -6,7z"/>
   <path class="fil1" d="M7416 1103c-1,0 -1,0 -2,0l-733 0c-4,0 -7,3 -7,6l0 166c0,4 3,7 7,7l733 0c2,0 4,-1 6,-3l0 0c1,-1 1,-2 1,-4l0 -166c0,-3 -2,-6 -5,-6zm-728 165l0 0 0 -152 719 0 0 152 -719 0z"/>
   <g>
    <path class="fil1" d="M7420 1271l0 0c-2,-2 -4,-3 -6,-3l-839 0c-2,0 -5,2 -6,4 -1,3 -1,6 1,8l67 71c1,2 3,3 5,3l772 0c4,0 7,-3 7,-7l0 -72c0,-2 0,-3 -1,-4zm-775 69l0 0 -54 -58 816 0 0 58 -762 0z"/>
    <polygon class="fil5" points="7407,1282 7407,1340 6645,1340 6591,1282 "/>
   </g>
   <path class="fil1" d="M7414 2339c-4,0 -7,-4 -7,-7l0 -875 -719 0 0 875c0,3 -3,7 -7,7 -4,0 -7,-4 -7,-7l0 -882c0,-4 3,-7 7,-7l733 0c4,0 7,3 7,7l0 882c0,3 -3,7 -7,7z"/>
   <path class="fil1" d="M7730 1270c-3,0 -6,-4 -6,-7l0 -154c0,-3 3,-6 6,-6 4,0 7,3 7,6l0 154c0,3 -3,7 -7,7z"/>
   <path class="fil1" d="M7816 1112l0 153c0,1 0,2 -1,3 -1,3 -3,4 -6,4 -3,0 -5,-1 -6,-4 0,-1 -1,-2 -1,-3l0 -153c0,-4 3,-7 7,-7 4,0 7,3 7,7z"/>
   <path class="fil1" d="M6845 1443c-3,0 -6,-3 -6,-7l0 -76c0,-3 3,-6 6,-6 4,0 7,3 7,6l0 76c0,4 -3,7 -7,7z"/>
   <path class="fil1" d="M6924 1445c-4,0 -7,-3 -7,-7l0 -76c0,-4 3,-7 7,-7 4,0 7,3 7,7l0 76c0,4 -3,7 -7,7z"/>
   <path class="fil1" d="M8352 1440c-17,0 -31,-14 -31,-31 0,-18 14,-32 31,-32 18,0 33,14 33,32 0,17 -15,31 -33,31zm0 -50l0 0c-10,0 -17,8 -17,19 0,10 7,18 17,18 10,0 19,-8 19,-18 0,-11 -10,-19 -19,-19z"/>
   <path class="fil1" d="M7008 1436c-3,0 -6,-3 -6,-6l0 -76c0,-4 3,-7 6,-7 4,0 7,3 7,7l0 76c0,3 -3,6 -7,6z"/>
   <path class="fil1" d="M7087 1438c-4,0 -7,-3 -7,-7l0 -76c0,-4 3,-7 7,-7 4,0 7,3 7,7l0 76c0,4 -3,7 -7,7z"/>
   <path class="fil1" d="M7166 1439c-4,0 -7,-3 -7,-7l0 -76c0,-3 3,-6 7,-6 3,0 7,3 7,6l0 76c0,4 -4,7 -7,7z"/>
   <path class="fil1" d="M7245 1440c-4,0 -7,-3 -7,-6l0 -76c0,-4 3,-7 7,-7 3,0 6,3 6,7l0 76c0,3 -3,6 -6,6z"/>
   <path class="fil1" d="M7330 1440c-4,0 -7,-3 -7,-6l0 -76c0,-4 3,-7 7,-7 4,0 7,3 7,7l0 76c0,3 -3,6 -7,6z"/>
   <path class="fil1" d="M7414 1116l-733 0c-4,0 -7,-3 -7,-7l0 -66c0,-4 3,-7 7,-7l733 0c4,0 7,3 7,7l0 66c0,4 -3,7 -7,7zm-726 -13l0 0 719 0 0 -53 -719 0 0 53z"/>
   <path class="fil1" d="M7242 2339c-4,0 -7,-4 -7,-7l0 -809 -388 0 0 809c0,3 -3,7 -7,7 -4,0 -7,-4 -7,-7l0 -816c0,-3 3,-6 7,-6l402 0c4,0 7,3 7,6l0 816c0,3 -3,7 -7,7z"/>
   <path class="fil1" d="M8363 2339c-4,0 -7,-4 -7,-7l0 -537c0,-214 -125,-388 -278,-388 -153,0 -278,174 -278,388l0 537c0,3 -3,7 -7,7 -4,0 -7,-4 -7,-7l0 -537c0,-222 131,-402 292,-402 161,0 292,180 292,402l0 537c0,3 -3,7 -7,7z"/>
   <path class="fil1" d="M7783 1440c-17,0 -31,-14 -31,-31 0,-18 14,-32 31,-32 18,0 33,14 33,32 0,17 -15,31 -33,31zm0 -50l0 0c-10,0 -17,8 -17,19 0,10 8,18 17,18 11,0 19,-8 19,-18 0,-11 -9,-19 -19,-19z"/>
   <path class="fil1" d="M7459 1051c0,0 0,0 0,0l-73 -1c-4,0 -7,-3 -7,-7 0,-4 3,-7 7,-7 0,0 0,0 0,0l73 2c4,0 7,3 7,6 0,4 -3,7 -7,7zm1273 0l0 0 -54 0c-4,0 -7,-3 -7,-7 0,-3 3,-6 7,-6l54 0c4,0 7,3 7,6 0,4 -3,7 -7,7zm-221 0l0 0 -884 0c-3,0 -6,-3 -6,-7 0,-3 3,-6 6,-6l884 0c4,0 7,3 7,6 0,4 -3,7 -7,7z"/>
   <path class="fil1" d="M8730 1275c0,4 -4,7 -7,7l-1298 0c-1,0 -3,-1 -4,-2 0,0 -1,0 -1,-1l0 0c-1,-1 -2,-2 -2,-4 0,-2 1,-3 2,-4l0 0c0,-1 1,-1 1,-1 1,-1 3,-2 4,-2l1298 0c3,0 7,3 7,7z"/>
   <path class="fil1" d="M7942 1109l0 154c0,2 -1,4 -2,5 -2,1 -3,2 -5,2 -1,0 -2,-1 -4,-2 -1,-1 -2,-3 -2,-5l0 -154c0,-3 3,-6 6,-6 4,0 7,3 7,6z"/>
   <path class="fil1" d="M8014 1272c-4,0 -7,-3 -7,-6l0 -154c0,-4 3,-7 7,-7 4,0 7,3 7,7l0 154c0,3 -3,6 -7,6z"/>
   <path class="fil1" d="M8139 1270c-4,0 -7,-4 -7,-7l0 -154c0,-3 3,-6 7,-6 4,0 7,3 7,6l0 154c0,3 -3,7 -7,7z"/>
   <path class="fil1" d="M8225 1112l0 153c0,1 -1,2 -1,3 -1,3 -3,4 -6,4 -3,0 -5,-1 -6,-4 -1,-1 -1,-2 -1,-3l0 -153c0,-4 3,-7 7,-7 4,0 7,3 7,7z"/>
   <path class="fil1" d="M8351 1109l0 154c0,2 -1,4 -3,5 -1,1 -2,2 -4,2 -1,0 -3,-1 -4,-2 -2,-1 -3,-3 -3,-5l0 -154c0,-3 3,-6 7,-6 4,0 7,3 7,6z"/>
   <path class="fil1" d="M8423 1272c-4,0 -7,-3 -7,-6l0 -154c0,-4 3,-7 7,-7 3,0 7,3 7,7l0 154c0,3 -4,6 -7,6z"/>
   <path class="fil1" d="M8683 728c0,4 -3,7 -6,7l-1217 0c-3,0 -6,-3 -6,-7 0,-3 3,-7 6,-7l1217 0c3,0 6,4 6,7z"/>
   <path class="fil1" d="M7698 2339c-4,0 -7,-4 -7,-7l0 -1018c0,-3 3,-6 7,-6 4,0 7,3 7,6l0 1018c0,3 -3,7 -7,7z"/>
   <path class="fil1" d="M8506 620l-866 0c-4,0 -7,-3 -7,-7 0,-4 3,-7 7,-7l866 0c3,0 6,3 6,7 0,4 -3,7 -6,7z"/>
   <path class="fil1" d="M7626 1108c-4,0 -7,-3 -7,-7l0 -622c0,-78 -35,-144 -76,-144 -42,0 -76,64 -76,144l0 622c0,4 -3,7 -7,7 -3,0 -6,-3 -6,-7l0 -622c0,-89 39,-158 89,-158 50,0 90,71 90,158l0 622c0,4 -3,7 -7,7z"/>
   <path class="fil1 str0" d="M7622 473l-160 0c-4,0 -7,-3 -7,-7 0,-3 3,-6 7,-6l160 0c4,0 7,3 7,6 0,4 -3,7 -7,7z"/>
   <path class="fil1" d="M7540 328c-3,0 -6,-3 -6,-7l0 -46c0,-4 3,-7 6,-7 4,0 7,3 7,7l0 46c0,4 -3,7 -7,7z"/>
   <path class="fil1" d="M7414 1464c-4,0 -7,-4 -7,-7l0 -117c0,-4 3,-7 7,-7 4,0 7,3 7,7l0 117c0,3 -3,7 -7,7z"/>
   <path class="fil1" d="M8720 1320l-1298 0c-3,0 -6,-3 -6,-7 0,-4 3,-7 6,-7l1298 0c4,0 7,3 7,7 0,4 -3,7 -7,7z"/>
   <path class="fil5" d="M7931 1268l-116 0c1,-1 1,-2 1,-3l0 -149 113 0 0 147c0,2 1,4 2,5z"/>
   <path class="fil5" d="M8340 1268l-116 0c0,-1 1,-2 1,-3l0 -149 112 0 0 147c0,2 1,4 3,5z"/>
   <path class="fil1" d="M8721 1109c0,3 -1,5 -2,6 -1,0 -2,1 -3,1 0,0 -1,0 -1,0l-1298 0c-1,0 -1,0 -1,0 -4,-1 -6,-3 -6,-7 0,-3 2,-6 6,-6 0,0 0,0 1,0l1298 0c0,0 1,0 1,0 1,0 2,0 3,1 1,1 2,3 2,5z"/>
   <path class="fil1" d="M7698 1438l-276 0c-3,0 -6,-3 -6,-7 0,-4 3,-7 6,-7l276 0c4,0 7,3 7,7 0,4 -3,7 -7,7z"/>
   <path class="fil1" d="M7698 2178l-276 0c-3,0 -6,-3 -6,-6 0,-4 3,-7 6,-7l276 0c4,0 7,3 7,7 0,3 -3,6 -7,6z"/>
   <path class="fil1" d="M8449 2339c-4,0 -7,-4 -7,-7l0 -1019c0,-4 3,-7 7,-7 3,0 6,3 6,7l0 1019c0,3 -3,7 -6,7z"/>
   <path class="fil1" d="M8725 1450l-275 0c-4,0 -7,-3 -7,-7 0,-4 3,-7 7,-7l275 0c4,0 7,3 7,7 0,4 -3,7 -7,7z"/>
   <path class="fil1" d="M8725 2191l-275 0c-4,0 -7,-3 -7,-7 0,-4 3,-7 7,-7l275 0c4,0 7,3 7,7 0,4 -3,7 -7,7z"/>
   <path class="fil1" d="M6683 1445c-4,0 -7,-3 -7,-7l0 -76c0,-4 3,-7 7,-7 3,0 6,3 6,7l0 76c0,4 -3,7 -6,7z"/>
   <path class="fil1" d="M6761 1446c-3,0 -7,-3 -7,-7l0 -76c0,-4 4,-7 7,-7 4,0 7,3 7,7l0 76c0,4 -3,7 -7,7z"/>
   <path class="fil2" d="M7171 2339c-4,0 -7,-4 -7,-7l0 -567c0,-94 -55,-170 -123,-170 -69,0 -125,76 -125,170l0 567c0,3 -3,7 -7,7 -4,0 -7,-4 -7,-7l0 -567c0,-101 63,-183 139,-183 76,0 137,82 137,183l0 567c0,3 -3,7 -7,7z"/>
   <g>
    <path class="fil5" d="M7573 564l0 157 -61 0 0 -157c0,-23 14,-43 31,-43 16,0 30,20 30,43z"/>
    <path class="fil1" d="M7587 564l0 159c0,4 -3,7 -7,7 -4,0 -7,-3 -7,-7l0 -159c0,-23 -14,-43 -30,-43 -17,0 -31,20 -31,43l0 159c0,4 -3,7 -7,7 -4,0 -7,-3 -7,-7l0 -159c0,-31 21,-57 45,-57 24,0 44,26 44,57z"/>
   </g>
   <path class="fil1" d="M9456 1103l-733 0c-2,0 -3,0 -4,1 -2,1 -3,3 -3,5l0 166c0,4 3,7 7,7l733 0c3,0 7,-3 7,-7l0 -166c0,-3 -4,-6 -7,-6zm-726 165l0 0 0 -152 719 0 0 152 -719 0z"/>
   <g>
    <path class="fil1" d="M9568 1272c-1,-2 -4,-4 -6,-4l-839 0c-4,0 -7,3 -7,7l0 72c0,4 3,7 7,7l772 0c2,0 4,-1 5,-3l67 -71c1,-2 2,-5 1,-8zm-76 68l0 0 -762 0 0 -58 816 0 -54 58z"/>
    <polygon class="fil3" points="9546,1282 9492,1340 8730,1340 8730,1282 "/>
   </g>
   <path class="fil1" d="M9456 2339c-4,0 -7,-4 -7,-7l0 -875 -719 0 0 875c0,3 -4,7 -7,7 -4,0 -7,-4 -7,-7l0 -882c0,-4 3,-7 7,-7l733 0c3,0 7,3 7,7l0 882c0,3 -4,7 -7,7z"/>
   <path class="fil1" d="M9292 1443c-4,0 -7,-3 -7,-7l0 -76c0,-3 3,-6 7,-6 3,0 6,3 6,6l0 76c0,4 -3,7 -6,7z"/>
   <path class="fil1" d="M9213 1445c-4,0 -7,-3 -7,-7l0 -76c0,-4 3,-7 7,-7 3,0 7,3 7,7l0 76c0,4 -4,7 -7,7z"/>
   <path class="fil1" d="M9129 1436c-4,0 -7,-3 -7,-6l0 -76c0,-4 3,-7 7,-7 3,0 6,3 6,7l0 76c0,3 -3,6 -6,6z"/>
   <path class="fil1" d="M9050 1438c-4,0 -7,-3 -7,-7l0 -76c0,-4 3,-7 7,-7 4,0 7,3 7,7l0 76c0,4 -3,7 -7,7z"/>
   <path class="fil1" d="M8971 1439c-4,0 -7,-3 -7,-7l0 -76c0,-3 3,-6 7,-6 4,0 7,3 7,6l0 76c0,4 -3,7 -7,7z"/>
   <path class="fil1" d="M8892 1440c-3,0 -6,-3 -6,-6l0 -76c0,-4 3,-7 6,-7 4,0 7,3 7,7l0 76c0,3 -3,6 -7,6z"/>
   <path class="fil1" d="M8807 1440c-4,0 -7,-3 -7,-6l0 -76c0,-4 3,-7 7,-7 4,0 7,3 7,7l0 76c0,3 -3,6 -7,6z"/>
   <path class="fil1" d="M9456 1116l-733 0c-4,0 -7,-3 -7,-7l0 -66c0,-4 3,-7 7,-7l733 0c3,0 7,3 7,7l0 66c0,4 -4,7 -7,7zm-726 -13l0 0 719 0 0 -53 -719 0 0 53z"/>
   <path class="fil1" d="M9285 2339c-4,0 -7,-4 -7,-7l0 -809 -388 0 0 809c0,3 -3,7 -7,7 -4,0 -7,-4 -7,-7l0 -816c0,-3 3,-6 7,-6l402 0c3,0 7,3 7,6l0 816c0,3 -4,7 -7,7z"/>
   <path class="fil1" d="M8723 1464c-4,0 -7,-4 -7,-7l0 -117c0,-4 3,-7 7,-7 3,0 7,3 7,7l0 117c0,3 -4,7 -7,7z"/>
   <path class="fil1" d="M9454 1445c-3,0 -6,-3 -6,-7l0 -76c0,-4 3,-7 6,-7 4,0 7,3 7,7l0 76c0,4 -3,7 -7,7z"/>
   <path class="fil1" d="M9376 1446c-4,0 -7,-3 -7,-7l0 -76c0,-4 3,-7 7,-7 3,0 6,3 6,7l0 76c0,4 -3,7 -6,7z"/>
   <path class="fil5" d="M9214 2339c-4,0 -7,-4 -7,-7l0 -567c0,-94 -55,-170 -123,-170 -69,0 -125,76 -125,170l0 567c0,3 -3,7 -7,7 -4,0 -7,-4 -7,-7l0 -567c0,-101 62,-183 139,-183 75,0 137,82 137,183l0 567c0,3 -3,7 -7,7z"/>
   <path class="fil1" d="M8677 1104c-4,0 -7,-3 -7,-7l0 -621c0,-77 -35,-143 -76,-143 -42,0 -76,64 -76,143l0 621c0,4 -3,7 -7,7 -4,0 -7,-3 -7,-7l0 -621c0,-88 40,-156 90,-156 49,0 89,70 89,156l0 621c0,4 -3,7 -6,7z"/>
   <polygon class="fil0" points="4159,1547 4251,1547 4260,1814 4148,1814 "/>
   <path class="fil1" d="M8674 471l-159 0c-4,0 -7,-4 -7,-7 0,-4 3,-7 7,-7l159 0c4,0 7,3 7,7 0,3 -3,7 -7,7z"/>
   <path class="fil1" d="M8596 325c-3,0 -6,-3 -6,-6l0 -45c0,-4 3,-7 6,-7 4,0 7,3 7,7l0 45c0,3 -3,6 -7,6z"/>
   <g>
    <path class="fil3" d="M8624 721l-62 0c0,0 1,0 1,-1l0 -159c0,-22 14,-42 31,-42 16,0 30,19 30,42l0 159c0,1 0,1 0,1z"/>
    <path class="fil1" d="M8637 561l0 159c0,1 0,1 0,1 -1,4 -3,6 -7,6 -3,0 -6,-2 -6,-6 0,0 0,0 0,-1l0 -159c0,-23 -14,-42 -30,-42 -17,0 -31,20 -31,42l0 159c0,1 -1,1 -1,1 0,4 -3,6 -6,6 -3,0 -6,-2 -7,-6 0,0 0,0 0,-1l0 -159c0,-30 20,-55 45,-55 24,0 43,24 43,55z"/>
   </g>
   <path class="fil1" d="M7705 728c-4,0 -7,-3 -7,-7l0 -105c0,-4 3,-7 7,-7 3,0 6,3 6,7l0 105c0,4 -3,7 -6,7z"/>
   <path class="fil1" d="M7783 730c-3,0 -6,-3 -6,-7l0 -106c0,-4 3,-7 6,-7 4,0 7,3 7,7l0 106c0,4 -3,7 -7,7z"/>
   <path class="fil1" d="M7866 732c-3,0 -7,-3 -7,-6l0 -106c0,-4 4,-7 7,-7 4,0 7,3 7,7l0 106c0,3 -3,6 -7,6z"/>
   <path class="fil1" d="M7945 734c-4,0 -7,-3 -7,-7l0 -106c0,-4 3,-7 7,-7 4,0 7,3 7,7l0 106c0,4 -3,7 -7,7z"/>
   <path class="fil1" d="M8029 731c-4,0 -7,-3 -7,-7l0 -106c0,-3 3,-6 7,-6 4,0 7,3 7,6l0 106c0,4 -3,7 -7,7z"/>
   <path class="fil1" d="M8108 732c-4,0 -7,-3 -7,-6l0 -106c0,-4 3,-7 7,-7 4,0 7,3 7,7l0 106c0,3 -3,6 -7,6z"/>
   <path class="fil1" d="M8192 731c-4,0 -7,-3 -7,-7l0 -106c0,-3 3,-6 7,-6 4,0 7,3 7,6l0 106c0,4 -3,7 -7,7z"/>
   <path class="fil1" d="M8271 732c-4,0 -7,-3 -7,-6l0 -105c0,-4 3,-7 7,-7 3,0 7,3 7,7l0 105c0,3 -4,6 -7,6z"/>
   <path class="fil1" d="M8354 728c-4,0 -7,-3 -7,-7l0 -105c0,-4 3,-7 7,-7 3,0 6,3 6,7l0 105c0,4 -3,7 -6,7z"/>
   <path class="fil1" d="M8432 731c-3,0 -7,-3 -7,-7l0 -106c0,-3 4,-6 7,-6 4,0 7,3 7,6l0 106c0,4 -3,7 -7,7z"/>
   <path class="fil1" d="M7698 1903l-276 0c-3,0 -6,-3 -6,-7 0,-3 3,-7 6,-7l276 0c4,0 7,4 7,7 0,4 -3,7 -7,7z"/>
   <path class="fil1" d="M8725 1915l-275 0c-4,0 -7,-3 -7,-6 0,-4 3,-7 7,-7l275 0c4,0 7,3 7,7 0,3 -3,6 -7,6z"/>
   <path class="fil1" d="M7698 1628l-276 0c-3,0 -6,-3 -6,-7 0,-4 3,-7 6,-7l276 0c4,0 7,3 7,7 0,4 -3,7 -7,7z"/>
   <path class="fil1" d="M8725 1640l-275 0c-4,0 -7,-3 -7,-7 0,-4 3,-7 7,-7l275 0c4,0 7,3 7,7 0,4 -3,7 -7,7z"/>
   <path class="fil1" d="M7265 469c-2,0 -3,0 -4,-1 -15,-13 -26,-14 -38,-4 -3,2 -7,2 -10,-1 -2,-3 -1,-8 1,-10 17,-14 36,-12 55,4 3,3 3,7 1,10 -1,1 -3,2 -5,2z"/>
   <path class="fil1" d="M7265 469c-2,0 -4,-1 -5,-2 -3,-3 -2,-7 0,-10 19,-16 39,-18 55,-4 3,2 4,7 1,10 -2,3 -6,3 -9,1 -12,-10 -24,-9 -38,3 -1,2 -2,2 -4,2z"/>
   <path class="fil1" d="M7865 2374l-752 0c-4,0 -7,-3 -7,-7 0,-4 3,-7 7,-7l752 0c4,0 7,3 7,7 0,4 -3,7 -7,7zm-915 0l0 0 -394 0c-3,0 -6,-3 -6,-7 0,-4 3,-7 6,-7l394 0c4,0 7,3 7,7 0,4 -3,7 -7,7z"/>
   <path class="fil1" d="M9606 2374l-445 0c-4,0 -7,-3 -7,-7 0,-4 3,-7 7,-7l445 0c4,0 7,3 7,7 0,4 -3,7 -7,7zm-605 0l0 0 -704 0c-4,0 -7,-3 -7,-7 0,-4 3,-7 7,-7l704 0c4,0 7,3 7,7 0,4 -3,7 -7,7z"/>
   <path class="fil1" d="M11180 2374l-1613 0c-4,0 -7,-3 -7,-7 0,-4 3,-7 7,-7l1613 0c3,0 6,3 6,7 0,4 -3,7 -6,7z"/>
   <path class="fil1" d="M10490 2361c84,0 152,-68 152,-152 0,-83 -68,-150 -152,-150 -83,0 -150,67 -150,150 0,84 67,152 150,152zm0 -289l0 0c77,0 139,62 139,137 0,77 -62,139 -139,139 -75,0 -137,-62 -137,-139 0,-75 62,-137 137,-137z"/>
   <path class="fil1" d="M9974 2361c84,0 152,-67 152,-150 0,-84 -68,-152 -152,-152 -83,0 -150,68 -150,152 0,83 67,150 150,150zm0 -289l0 0c77,0 139,62 139,139 0,75 -62,137 -139,137 -75,0 -137,-62 -137,-137 0,-77 62,-139 137,-139z"/>
   <path class="fil1" d="M10490 2213c1,0 2,0 3,0 4,-2 5,-6 3,-10l-108 -198c22,-1 70,-6 85,-37 2,-3 0,-7 -3,-9 -3,-2 -7,0 -9,3 -15,32 -84,29 -84,29 -3,-1 -5,1 -7,3 -1,2 -1,5 0,7l114 209c2,2 4,3 6,3z"/>
   <path class="fil1" d="M10122 2076c1,0 1,0 1,0l256 -19c4,0 7,-3 7,-7 -1,-3 -4,-6 -7,-6 0,0 0,0 -1,0l-256 19c-4,0 -7,3 -6,7 0,4 3,6 6,6z"/>
   <path class="fil1" d="M10110 2121c1,0 2,0 3,-1 4,-2 5,-6 3,-9 -14,-25 -43,-60 -53,-68 -3,-3 -7,-7 -169,4 -4,0 -7,3 -6,7 0,3 3,6 6,6 0,0 1,0 1,0 124,-8 154,-8 160,-6 10,9 37,41 49,64 1,2 4,3 6,3z"/>
   <path class="fil1" d="M10249 2216c2,0 4,-1 5,-2l130 -159c3,-3 2,-7 -1,-10 -3,-2 -7,-2 -9,1l-131 159c-2,3 -2,7 1,10 2,1 3,1 5,1z"/>
   <path class="fil1" d="M10078 2023c2,0 4,0 5,-2 2,-3 2,-7 -1,-10l-38 -28c22,3 42,5 64,4l-4 2c-4,1 -6,5 -4,8 1,4 5,6 8,4l51 -17c3,-1 5,-5 4,-8 -1,-3 -4,-5 -7,-5 -54,5 -88,3 -137,-7 -3,-1 -6,1 -7,4 -2,3 -1,6 2,8l59 46c2,1 3,1 5,1z"/>
   <path class="fil1" d="M10219 2288c25,0 46,-21 46,-46 0,-25 -21,-46 -46,-46 -26,0 -46,21 -46,46 0,25 20,46 46,46zm0 -79l0 0c18,0 32,15 32,33 0,18 -14,32 -32,32 -18,0 -33,-14 -33,-32 0,-18 15,-33 33,-33z"/>
   <path class="fil1" d="M10200 2215c1,0 2,-1 3,-1 3,-2 4,-6 3,-9l-124 -215c-2,-3 -6,-4 -9,-2 -3,2 -4,6 -3,9l124 214c1,3 3,4 6,4z"/>
   <path class="fil1" d="M10265 2322c1,0 2,0 3,-1 4,-2 5,-6 3,-9l-48 -76c-2,-4 -6,-5 -9,-3 -3,2 -4,7 -2,10l47 76c1,2 4,3 6,3z"/>
   <path class="fil1" d="M10224 2341c1,0 2,0 3,-1l80 -35c3,-1 5,-5 3,-9 -1,-3 -5,-5 -8,-3l-81 35c-3,1 -5,5 -3,9 1,2 4,4 6,4z"/>
   <path class="fil1" d="M10490 2216c4,0 7,-3 7,-7l0 -123c0,-4 -3,-7 -7,-7 -4,0 -7,3 -7,7l0 123c0,4 3,7 7,7z"/>
   <path class="fil1" d="M10490 2216c2,0 4,-1 5,-2 3,-3 3,-7 0,-9l-87 -87c-2,-3 -7,-3 -9,0 -3,2 -3,7 0,9l86 87c2,1 3,2 5,2z"/>
   <path class="fil1" d="M10368 2217c0,0 0,0 0,0l122 -1c4,0 7,-3 7,-7 0,-4 -3,-7 -7,-6l-122 1c-4,0 -7,3 -7,7 0,4 3,6 7,6z"/>
   <path class="fil1" d="M10405 2304c1,0 3,0 5,-2l85 -88c3,-3 3,-7 0,-10 -3,-2 -7,-2 -10,1l-85 88c-3,2 -3,7 0,9 1,2 3,2 5,2z"/>
   <path class="fil1" d="M10492 2340c0,0 0,0 0,0 3,0 6,-4 6,-7l-1 -124c0,-4 -3,-7 -7,-6 -4,0 -7,3 -7,6l2 124c0,4 3,7 7,7z"/>
   <path class="fil1" d="M10578 2303c2,0 4,-1 5,-2 3,-3 3,-7 0,-10l-88 -87c-3,-2 -7,-2 -10,1 -2,2 -2,7 0,9l89 87c1,1 3,2 4,2z"/>
   <path class="fil1" d="M10490 2216c0,0 0,0 0,0l124 -1c4,0 7,-3 7,-7 0,-4 -3,-6 -7,-7l-124 2c-4,0 -7,3 -7,6 0,4 3,7 7,7z"/>
   <path class="fil1" d="M10490 2216c2,0 4,-1 5,-2l87 -88c3,-3 3,-7 0,-10 -3,-2 -7,-2 -10,0l-87 89c-2,2 -2,7 0,9 2,1 3,2 5,2z"/>
   <path class="fil1" d="M9974 2217c0,0 0,0 1,0 3,0 6,-3 6,-6l-1 -124c0,-4 -3,-6 -7,-7 -4,1 -7,4 -7,7l2 124c0,4 3,6 6,6z"/>
   <path class="fil1" d="M9974 2217c2,0 4,0 5,-2 3,-2 3,-7 0,-9l-88 -87c-3,-3 -7,-3 -10,0 -2,3 -2,7 0,10l89 87c1,1 3,1 4,1z"/>
   <path class="fil1" d="M9851 2219c0,0 0,0 0,0l124 -2c3,0 6,-3 6,-6 0,-4 -3,-7 -7,-7 0,0 0,0 0,0l-123 1c-4,0 -7,3 -7,7 0,4 3,7 7,7z"/>
   <path class="fil1" d="M9889 2306c2,0 3,-1 5,-2l85 -89c3,-2 3,-7 0,-9 -3,-3 -7,-3 -9,0l-86 88c-3,3 -2,7 0,10 2,1 3,2 5,2z"/>
   <path class="fil1" d="M9976 2341c3,0 7,-3 7,-7l-2 -123c0,-4 -3,-7 -7,-7 0,0 0,0 0,0 -3,0 -6,3 -6,7l1 123c0,4 3,7 7,7z"/>
   <path class="fil1" d="M10063 2304c1,0 3,0 4,-2 3,-2 3,-7 0,-9l-88 -87c-2,-3 -7,-3 -9,0 -3,3 -3,7 0,10l88 86c1,2 3,2 5,2z"/>
   <path class="fil1" d="M9974 2217c0,0 0,0 1,0l123 -1c4,0 7,-3 7,-7 0,-4 -4,-7 -7,-6l-124 1c-3,0 -6,3 -6,7 0,4 3,6 6,6z"/>
   <path class="fil1" d="M9974 2217c2,0 4,0 5,-2l87 -88c3,-2 3,-7 0,-9 -3,-3 -7,-3 -10,0l-86 88c-3,3 -3,7 0,10 1,1 3,1 4,1z"/>
   <path class="fil1" d="M610 2370c-4,0 -7,-3 -7,-7l0 -397c0,-4 3,-7 7,-7 3,0 6,3 6,7l0 397c0,4 -3,7 -6,7z"/>
   <path class="fil1" d="M614 1971c-53,0 -99,-34 -115,-85 -2,-3 0,-7 4,-8 4,-1 7,0 8,4 15,45 56,75 103,75 46,0 87,-31 100,-75 1,-3 5,-5 9,-4 3,1 5,4 4,8 -14,50 -61,85 -113,85z"/>
   <path class="fil1" d="M800 1847c-2,0 -4,0 -5,-2 -3,-2 -3,-6 0,-9 33,-33 40,-84 18,-125 -23,-41 -69,-63 -115,-54 -4,1 -8,-1 -8,-5 -1,-4 1,-7 5,-8 52,-10 104,14 129,60 26,47 17,104 -20,141 -1,2 -3,2 -4,2z"/>
   <path class="fil1" d="M467 1900c-25,0 -47,-16 -53,-39 -1,-3 1,-7 5,-8 4,-1 7,1 8,5 5,17 21,29 40,29 18,0 34,-11 40,-29 1,-4 5,-6 8,-5 4,1 6,5 5,9 -8,23 -29,38 -53,38z"/>
   <path class="fil1" d="M819 1933c-2,0 -4,-1 -6,-2 -2,-3 -2,-7 1,-10 13,-12 16,-31 7,-47 -10,-16 -27,-25 -45,-21 -3,0 -7,-2 -8,-6 0,-3 2,-7 6,-8 23,-4 46,7 59,28 12,21 8,48 -10,64 -1,1 -3,2 -4,2z"/>
   <path class="fil1" d="M459 1698c-3,0 -6,-2 -7,-5 -12,-42 5,-86 42,-110 37,-24 86,-21 119,7 2,2 3,7 0,10 -2,2 -6,3 -9,0 -29,-24 -70,-27 -102,-6 -32,21 -47,59 -37,96 1,3 -1,7 -4,8 -1,0 -2,0 -2,0z"/>
   <path class="fil1" d="M612 1617c0,0 -1,0 -1,0 -4,-1 -6,-5 -5,-8 4,-23 24,-41 49,-44 1,0 2,0 4,0 23,0 44,15 51,36 1,4 -1,8 -5,9 -3,1 -7,-1 -8,-5 -6,-16 -23,-27 -41,-26 -19,2 -34,15 -37,32 -1,4 -4,6 -7,6z"/>
   <path class="fil1" d="M394 1900c-2,0 -4,0 -5,-1 -38,-36 -49,-93 -26,-140 24,-48 75,-73 128,-65 4,1 6,4 6,8 -1,4 -5,6 -8,6 -47,-8 -93,15 -114,57 -20,42 -10,93 23,124 3,2 3,6 1,9 -2,2 -3,2 -5,2z"/>
   <path class="fil1" d="M725 1742c-3,0 -6,-2 -7,-5 -6,-24 4,-49 24,-61 21,-14 47,-12 65,4 3,2 3,6 0,9 -2,3 -7,3 -9,1 -13,-12 -33,-13 -49,-2 -15,9 -22,28 -18,45 1,4 -1,7 -4,8 -1,1 -2,1 -2,1z"/>
   <path class="fil1" d="M692 1770c-3,0 -5,-2 -6,-5 -12,-37 -46,-63 -86,-63 -38,0 -73,26 -84,63 -2,4 -5,6 -9,5 -4,-1 -6,-5 -4,-9 13,-42 53,-72 97,-72 46,0 85,29 99,72 1,4 -1,8 -5,9 0,0 -1,0 -2,0z"/>
   <path class="fil1" d="M730 1800c-3,0 -5,-2 -6,-5 -5,-14 -18,-23 -32,-23 -15,0 -28,9 -33,23 -1,4 -5,6 -8,5 -4,-2 -6,-5 -4,-9 6,-20 24,-33 45,-33 20,0 38,13 45,33 1,4 -1,7 -5,9 0,0 -1,0 -2,0z"/>
   <path class="fil1" d="M521 2005c-51,0 -97,-34 -113,-84 -2,-3 0,-7 4,-8 4,-1 7,1 9,4 14,44 55,74 100,74 21,0 42,-5 62,-18 3,-2 7,-1 9,2 2,4 1,8 -2,10 -22,14 -44,20 -69,20z"/>
   <path class="fil1" d="M706 1982c-1,0 -2,0 -3,0l0 0c-17,0 -33,-5 -50,-15 -3,-2 -4,-6 -2,-9 2,-3 6,-4 9,-2 16,9 31,12 46,12 32,0 60,-21 71,-53 1,-4 5,-6 8,-5 4,1 6,5 5,9 -12,37 -47,63 -84,63z"/>
   <path class="fil1" d="M2670 1366c-2,0 -4,-1 -5,-3 -9,-11 -19,-17 -27,-17 0,0 0,0 0,0 -7,0 -14,4 -21,12 -3,3 -7,3 -10,1 -3,-3 -3,-7 0,-10 9,-11 20,-16 31,-16 0,0 0,0 0,0 13,0 25,7 37,22 3,3 2,7 -1,9 -1,1 -2,2 -4,2z"/>
   <path class="fil1" d="M2670 1366c-2,0 -3,-1 -4,-2 -3,-2 -4,-7 -1,-9 13,-15 26,-22 39,-22 0,0 0,0 0,0 11,0 21,5 31,16 2,3 2,7 -1,10 -3,2 -7,2 -9,-1 -7,-8 -14,-12 -21,-12 0,0 0,0 0,0 -9,0 -19,6 -29,18 -1,1 -3,2 -5,2z"/>
   <path class="fil1" d="M9791 2372c-4,0 -7,-3 -7,-6l0 -774c-11,-65 -87,-111 -150,-131 -3,-2 -5,-5 -4,-9 1,-4 5,-5 8,-4 66,21 148,71 160,143l0 775c0,3 -3,6 -7,6z"/>
   <path class="fil1" d="M9948 1461c-19,5 -38,14 -57,24 -3,2 -6,3 -9,5 -9,6 -18,11 -26,18 -30,22 -53,51 -58,86 -1,3 -4,5 -7,5 0,0 -1,0 -1,0 -3,0 -6,-3 -6,-7l0 0c0,0 0,0 0,-1 2,-8 4,-16 7,-24 15,-36 47,-66 83,-88l0 0c4,-2 7,-4 11,-6 19,-11 40,-19 59,-25 1,-1 2,-1 3,-1 2,1 4,2 5,5 1,4 -1,7 -4,9z"/>
   <g>
    <path class="fil1" d="M9720 1503c-4,-13 -13,-24 -27,-31l-53 -23c-1,-1 -3,-1 -4,-2 -24,-7 -48,3 -59,26 -11,25 0,52 25,63l53 23c6,3 13,5 20,5 5,0 11,-1 17,-4 12,-4 21,-13 27,-25 4,-11 4,-22 1,-32zm-14 27l0 0c-4,8 -11,14 -19,18 -9,3 -18,3 -26,-1l-53 -23c-19,-8 -26,-27 -18,-45 5,-13 17,-20 30,-20 5,0 10,1 15,3 0,0 0,0 0,0l53 23c17,8 25,27 18,45z"/>
    <path class="fil6" d="M9706 1530c-4,8 -11,14 -19,18 -9,3 -18,3 -26,-1l-53 -23c-19,-8 -26,-27 -18,-45 5,-13 17,-20 30,-20 5,0 10,1 15,3 0,0 0,0 0,0l53 23c17,8 25,27 18,45z"/>
   </g>
   <path class="fil1 str1" d="M4924 1784c38,0 54,1 125,-3 4,0 11,-27 -101,-29 -2,0 -4,-3 -4,-5 1,-4 1,-9 -1,-12 -8,-24 -22,-46 -43,-60 -21,-13 -49,-17 -71,-7 -23,11 -36,33 -48,54 -1,1 -3,1 -3,0 -7,-24 -30,-41 -55,-40 -24,1 -46,20 -50,44 -1,1 -2,2 -3,1 -9,-9 -28,-4 -30,9 -1,7 1,15 -4,19 -2,1 -4,2 -7,2 -25,4 -49,6 -74,9l0 15c4,0 9,0 14,0 40,1 80,1 121,1 80,1 155,1 234,2z"/>
   <g>
    <path class="fil1" d="M10000 1475c-5,-12 -14,-21 -26,-25 -9,-4 -18,-5 -27,-3 -3,1 -6,2 -9,4l-53 22 -2 1c-3,1 -6,3 -9,5l0 0c-9,7 -16,18 -18,29 -2,9 -1,19 3,29 5,11 14,20 26,25 5,2 11,3 17,3 7,0 13,-2 19,-4l55 -24c24,-11 34,-38 24,-62zm-30 50l0 0 -54 23c-8,4 -18,4 -26,1 -8,-3 -15,-9 -18,-18 -7,-14 -2,-31 10,-41 2,-1 4,-3 7,-4l2 -1 52 -22c0,0 0,0 0,0 5,-2 9,-3 14,-3 4,0 8,1 12,2 8,3 15,10 18,18 8,18 1,37 -17,45z"/>
    <path class="fil3" d="M9970 1525l-54 23c-8,4 -18,4 -26,1 -8,-3 -15,-9 -18,-18 -7,-14 -2,-31 10,-41 3,-2 6,-3 9,-5l52 -22c0,0 0,0 0,0 5,-2 9,-3 14,-3 4,0 8,1 12,2 8,3 15,10 18,18 8,18 1,37 -17,45z"/>
   </g>
   <path class="fil1" d="M5972 2471c-186,0 -371,-65 -518,-191 -160,-138 -256,-331 -272,-541 -15,-211 53,-415 191,-574 122,-143 292,-237 479,-266 32,-5 57,-19 80,-45l712 -825c2,-3 6,-3 9,0 3,2 3,6 1,9l-712 825c-25,29 -53,44 -88,50 -184,28 -351,120 -471,261 -136,156 -202,357 -187,564 15,207 110,396 267,532 250,215 611,249 897,84 3,-1 7,0 9,3 2,3 1,7 -2,9 -123,71 -259,105 -395,105z"/>
   <path class="fil1" d="M5804 762c-3,0 -6,-2 -6,-6 -1,-3 2,-7 5,-7 34,-6 63,-22 86,-47l231 -267c2,-3 6,-3 9,-1 3,3 3,7 1,10l-231 267c-25,28 -57,45 -94,51 0,0 0,0 -1,0z"/>
   <path class="fil1" d="M5966 2324c-73,0 -146,-12 -217,-37 -3,-2 -5,-6 -4,-9 1,-4 5,-5 9,-4 243,88 520,16 690,-180 179,-207 203,-505 60,-740 -2,-3 -1,-7 3,-9 3,-2 7,-1 9,2 145,240 121,544 -62,756 -124,143 -305,221 -488,221zm-550 -318l0 0c-2,0 -5,-1 -6,-3 -135,-236 -107,-533 72,-739 114,-133 275,-212 452,-222 4,-1 7,2 7,6 1,4 -2,7 -6,7 -173,10 -331,87 -443,218 -175,201 -203,492 -70,723 2,3 1,7 -3,9 -1,1 -2,1 -3,1z"/>
   <g>
    <path class="fil1" d="M5283 2360l-807 0c32,-30 68,-64 107,-99 3,-3 6,-6 10,-9 7,-7 15,-14 22,-21 209,-190 482,-439 575,-673l0 0c17,-44 28,-86 31,-129l0 0c1,-8 1,-17 1,-25 0,-166 -92,-307 -247,-375 -83,-38 -192,-54 -365,-54 -4,0 -6,3 -7,6 0,3 1,6 5,7 206,69 266,146 339,436l89 361c-123,156 -291,309 -430,436 -55,50 -107,97 -150,139 0,1 -1,2 -2,2 -2,2 -2,5 -1,8 1,2 3,4 6,4l824 0c4,0 7,-3 7,-7 0,-4 -3,-7 -7,-7zm-323 -939l0 0c-70,-277 -128,-364 -309,-432 147,2 244,18 318,52 150,67 239,202 239,363 0,117 -66,243 -161,367l-87 -350z"/>
    <path class="fil3" d="M5208 1404c0,117 -66,243 -161,367l-87 -350c-70,-277 -128,-364 -309,-432 147,2 244,18 318,52 150,67 239,202 239,363z"/>
   </g>
   <path class="fil1" d="M6376 557c-2,0 -4,0 -5,-1 -3,-3 -3,-7 0,-10l228 -247c2,-3 7,-3 9,0 3,2 3,6 1,9l-228 247c-2,2 -3,2 -5,2z"/>
   <path class="fil1" d="M6305 1426c-2,0 -4,-1 -5,-3 -112,-150 -313,-211 -488,-147 -3,1 -7,-1 -9,-4 -1,-4 1,-8 4,-9 181,-66 388,-3 504,152 2,3 1,7 -2,9 -1,1 -2,2 -4,2z"/>
   <g>
    <path class="fil1" d="M4793 2360l-317 0c32,-30 68,-64 107,-99 54,46 128,81 210,99z"/>
    <path class="fil1" d="M4893 2367c0,4 -3,7 -6,7 0,0 -1,0 -1,0 -32,-2 -63,-7 -93,-14 -82,-18 -156,-53 -210,-99 -1,-1 -2,-2 -3,-3 -3,-2 -4,-7 -1,-9 2,-3 7,-3 9,-1 2,1 3,2 5,4 72,61 179,100 294,108 0,0 0,0 0,0 4,1 7,4 6,7z"/>
   </g>
   <path class="fil1" d="M2635 986c-2,0 -4,-1 -5,-2 -9,-12 -18,-17 -27,-18 0,0 0,0 0,0 -7,0 -14,4 -21,12 -2,3 -7,4 -10,1 -2,-2 -3,-7 0,-9 9,-12 20,-17 31,-17 0,0 0,0 0,0 13,0 26,8 37,22 3,3 2,7 0,10 -2,1 -3,1 -5,1z"/>
   <path class="fil1" d="M2635 986c-1,0 -3,0 -4,-2 -3,-2 -3,-6 -1,-9 13,-15 26,-22 39,-22 0,0 0,0 0,0 11,0 22,6 31,17 3,2 2,7 -1,9 -2,3 -7,2 -9,-1 -7,-7 -14,-12 -21,-12 0,0 0,0 0,0 -9,0 -18,6 -29,18 -1,1 -3,2 -5,2z"/>
   <path class="fil1" d="M798 877c-2,0 -3,0 -5,-2 -14,-12 -26,-13 -37,-4 -3,3 -7,2 -10,-1 -2,-2 -2,-7 1,-9 17,-14 35,-12 55,4 3,2 3,7 1,10 -1,1 -3,2 -5,2z"/>
   <path class="fil1" d="M798 877c-2,0 -4,-1 -5,-2 -3,-3 -2,-8 0,-10 20,-16 38,-18 55,-4 3,2 4,7 1,9 -2,3 -7,4 -9,1 -12,-9 -23,-8 -38,4 -1,2 -3,2 -4,2z"/>
   <path class="fil7 str2" d="M2142 157c23,0 41,18 41,40 0,22 -18,40 -41,40 -22,0 -40,-18 -40,-40 0,-22 18,-40 40,-40z"/>
   <path class="fil7 str2" d="M3072 839c22,0 41,18 41,40 0,22 -19,40 -41,40 -22,0 -40,-18 -40,-40 0,-22 18,-40 40,-40z"/>
   <path class="fil7 str2" d="M4157 707c22,0 40,18 40,40 0,22 -18,40 -40,40 -22,0 -40,-18 -40,-40 0,-22 18,-40 40,-40z"/>
   <path class="fil7 str2" d="M4796 684c22,0 40,18 40,40 0,23 -18,41 -40,41 -22,0 -40,-18 -40,-41 0,-22 18,-40 40,-40z"/>
   <path class="fil1" d="M756 594c-2,0 -4,-1 -5,-2 -9,-11 -18,-17 -27,-17 0,0 0,0 0,0 -7,0 -14,4 -21,12 -2,2 -7,3 -9,0 -3,-2 -4,-7 -1,-9 10,-11 20,-17 31,-17 0,0 0,0 1,0 12,0 25,8 37,22 2,3 2,7 -1,10 -2,1 -3,1 -5,1z"/>
   <path class="fil1" d="M756 594c-1,0 -3,0 -4,-1 -3,-3 -3,-7 -1,-10 13,-15 26,-22 39,-22 0,0 0,0 0,0 11,0 22,6 31,17 3,2 2,7 0,9 -3,3 -8,2 -10,0 -7,-8 -14,-12 -21,-12 0,0 0,0 0,0 -9,0 -18,5 -29,17 -1,2 -3,2 -5,2z"/>
   <path class="fil7 str2" d="M1979 622c22,0 40,18 40,41 0,22 -18,40 -40,40 -23,0 -41,-18 -41,-40 0,-23 18,-41 41,-41z"/>
   <path class="fil7 str2" d="M2217 1023c22,0 40,18 40,40 0,23 -18,41 -40,41 -22,0 -40,-18 -40,-41 0,-22 18,-40 40,-40z"/>
   <path class="fil7 str2" d="M365 1327c22,0 40,18 40,41 0,22 -18,40 -40,40 -22,0 -40,-18 -40,-40 0,-23 18,-41 40,-41z"/>
   <path class="fil7 str2" d="M749 1099c22,0 40,18 40,40 0,22 -18,40 -40,40 -23,0 -41,-18 -41,-40 0,-22 18,-40 41,-40z"/>
   <path class="fil1" d="M3316 449c-2,0 -4,-1 -5,-3 -9,-11 -18,-17 -27,-17 0,0 0,0 0,0 -7,0 -14,4 -21,12 -2,3 -7,3 -10,1 -2,-3 -3,-7 0,-10 9,-11 20,-16 31,-16 0,0 0,0 0,0 13,0 25,7 37,22 3,3 2,7 0,9 -2,1 -3,2 -5,2z"/>
   <path class="fil1" d="M3316 449c-1,0 -3,-1 -4,-2 -3,-2 -3,-7 -1,-9 13,-15 26,-22 39,-22 0,0 0,0 0,0 11,0 21,5 31,16 3,3 2,7 -1,10 -2,2 -7,2 -9,-1 -7,-8 -14,-12 -21,-12 0,0 0,0 0,0 -9,0 -18,6 -29,18 -1,1 -3,2 -5,2z"/>
   <path class="fil4" d="M2932 368l-239 0c-47,0 -88,-39 -88,-85 0,-39 27,-75 62,-85 14,-46 58,-80 107,-80 43,0 82,24 102,60 41,-7 74,17 78,53 36,11 51,42 49,70 -1,33 -26,67 -71,67zm-158 -213l0 0c-35,0 -68,27 -73,62l-3 13 -14 2c-22,2 -42,26 -42,51 0,26 24,48 51,48l239 0c23,0 34,-16 35,-31 0,-15 -8,-33 -33,-35l-17 -2 0 -24c0,-15 -10,-25 -25,-25 -11,0 -11,0 -13,1l-22 22 -8 -29c-10,-31 -41,-53 -75,-53z"/>
   <path class="fil7 str2" d="M3866 1174c22,0 40,18 40,40 0,23 -18,41 -40,41 -22,0 -40,-18 -40,-41 0,-22 18,-40 40,-40z"/>
   <path class="fil7 str2" d="M1167 658c22,0 41,18 41,40 0,22 -19,40 -41,40 -22,0 -40,-18 -40,-40 0,-22 18,-40 40,-40z"/>
   <path class="fil1" d="M5729 259c-2,0 -4,-1 -6,-3 -9,-11 -18,-17 -26,-17 0,0 -1,0 -1,0 -7,0 -14,4 -21,12 -2,3 -6,3 -9,1 -3,-3 -3,-7 -1,-10 10,-11 20,-16 31,-16 0,0 1,0 1,0 12,0 25,7 37,22 2,3 2,7 -1,9 -1,1 -3,2 -4,2z"/>
   <path class="fil1" d="M5729 259c-2,0 -4,-1 -5,-2 -3,-2 -3,-7 0,-9 12,-15 25,-22 38,-22 0,0 0,0 0,0 11,0 22,5 31,16 3,3 3,7 0,10 -3,2 -7,2 -10,-1 -7,-8 -14,-12 -21,-12 0,0 0,0 0,0 -9,0 -18,6 -28,18 -2,1 -4,2 -5,2z"/>
   <path class="fil8" d="M10444 170c-1,0 -3,0 -5,-2 -9,-11 -18,-17 -26,-17 -1,0 -1,0 -1,0 -7,0 -14,4 -21,12 -2,3 -6,3 -9,0 -3,-2 -3,-6 -1,-9 10,-11 20,-17 31,-17 0,0 1,0 1,0 12,0 25,8 37,22 2,3 2,8 -1,10 -1,1 -3,1 -5,1z"/>
   <path class="fil8" d="M10444 170c-1,0 -3,0 -4,-1 -3,-3 -3,-7 -1,-10 13,-14 26,-22 39,-22 0,0 0,0 0,0 11,0 22,6 31,17 3,3 2,7 0,9 -3,3 -7,3 -10,0 -7,-8 -14,-12 -21,-12 0,0 0,0 0,0 -9,0 -18,6 -28,17 -2,2 -4,2 -6,2z"/>
   <path class="fil1" d="M9431 215c-2,0 -4,-1 -6,-3 -9,-11 -18,-17 -26,-17 0,0 0,0 -1,0 -7,0 -14,4 -21,12 -2,3 -6,3 -9,1 -3,-3 -3,-7 -1,-10 10,-11 20,-16 31,-16 1,0 1,0 1,0 12,0 25,7 37,22 2,3 2,7 -1,9 -1,1 -3,2 -4,2z"/>
   <path class="fil1" d="M9431 215c-2,0 -4,-1 -5,-2 -3,-2 -3,-7 0,-9 12,-15 25,-22 38,-22 0,0 0,0 0,0 11,0 22,5 32,16 2,3 2,7 -1,10 -3,2 -7,2 -10,-1 -7,-8 -14,-12 -21,-12 0,0 0,0 0,0 -8,0 -18,6 -28,18 -2,1 -3,2 -5,2z"/>
   <path class="fil7 str2" d="M6794 400c22,0 40,18 40,41 0,22 -18,40 -40,40 -23,0 -41,-18 -41,-40 0,-23 18,-41 41,-41z"/>
   <path class="fil1" d="M9045 731c-2,0 -4,-1 -5,-2 -10,-12 -19,-17 -27,-17 0,0 0,0 0,0 -7,0 -14,4 -21,12 -3,2 -7,3 -10,0 -3,-2 -3,-7 0,-9 9,-11 20,-17 31,-17 0,0 0,0 0,0 13,0 25,8 37,22 3,3 2,7 -1,10 -1,1 -2,1 -4,1z"/>
   <path class="fil1" d="M9045 731c-2,0 -3,0 -5,-1 -2,-3 -3,-7 0,-10 13,-15 26,-22 39,-22 0,0 0,0 0,0 11,0 21,6 31,17 2,2 2,7 -1,9 -3,3 -7,2 -9,0 -7,-8 -14,-12 -21,-12 0,0 0,0 0,0 -9,0 -19,5 -29,17 -1,1 -3,2 -5,2z"/>
   <path class="fil1" d="M7948 419c-2,0 -4,-1 -5,-2 -9,-12 -19,-18 -27,-18 0,0 0,0 0,0 -7,0 -14,4 -21,12 -3,3 -7,3 -10,1 -3,-3 -3,-7 0,-10 9,-11 20,-16 31,-16 0,0 0,0 0,0 13,0 25,7 37,22 3,3 2,7 -1,9 -1,2 -2,2 -4,2z"/>
   <path class="fil1" d="M7948 419c-2,0 -3,-1 -4,-2 -3,-2 -3,-6 -1,-9 13,-15 26,-22 39,-22 0,0 0,0 0,0 11,0 21,5 31,16 2,3 2,7 -1,10 -3,2 -7,2 -9,-1 -7,-8 -14,-12 -21,-12 0,0 0,0 0,0 -9,0 -19,6 -29,18 -1,1 -3,2 -5,2z"/>
   <polygon class="fil9" points="7421,1628 7691,1628 7691,1889 7421,1889 "/>
   <polygon class="fil10" points="8450,1915 8720,1915 8720,2177 8450,2177 "/>
   <polygon class="fil9" points="9059,1357 9118,1357 9118,1440 9059,1440 "/>
   <polygon class="fil10" points="9304,1357 9362,1357 9362,1440 9304,1440 "/>
   <polygon class="fil10" points="8821,1357 8879,1357 8879,1440 8821,1440 "/>
   <polygon class="fil11" points="7019,1356 7077,1356 7077,1439 7019,1439 "/>
   <polygon class="fil9" points="7258,1356 7316,1356 7316,1439 7258,1439 "/>
   <polygon class="fil9" points="6774,1357 6832,1357 6832,1441 6774,1441 "/>
   <path class="fil1" d="M9627 814c-2,0 -4,0 -5,-2 -10,-11 -19,-17 -27,-17 0,0 0,0 0,0 -7,0 -14,4 -21,12 -3,2 -7,3 -10,0 -3,-2 -3,-6 -1,-9 10,-11 20,-17 32,-17 0,0 0,0 0,0 13,0 25,8 37,22 2,3 2,7 -1,10 -1,1 -3,1 -4,1z"/>
   <path class="fil1" d="M9627 814c-2,0 -3,0 -5,-1 -3,-3 -3,-7 0,-10 13,-15 26,-22 38,-22 0,0 0,0 0,0 12,0 22,6 32,17 2,3 2,7 -1,9 -3,3 -7,2 -10,0 -6,-8 -14,-12 -21,-12 0,0 0,0 0,0 -8,0 -18,6 -28,17 -1,2 -3,2 -5,2z"/>
   <g>
    <path class="fil12" d="M5175 2349c-15,5 -32,1 -42,-11 -10,-12 -12,-30 -3,-44 8,-13 24,-20 39,-17 18,3 30,19 30,37 0,15 -9,30 -24,35zm3 -80c-18,-7 -40,-1 -53,14 -12,16 -14,38 -4,55 10,17 31,26 50,22 22,-4 38,-24 38,-46 0,-20 -12,-38 -31,-45z"/>
    <path class="fil10" d="M5163 2327c-8,0 -14,-7 -14,-15 0,-7 6,-14 14,-14 8,0 14,7 14,14 0,8 -6,15 -14,15zm7 -35c-8,-3 -18,0 -24,7 -6,7 -6,17 -2,24 5,8 14,12 23,11 10,-2 17,-11 18,-21 0,0 0,0 0,-1 0,0 0,0 0,0 -1,-9 -6,-17 -15,-20z"/>
    <path class="fil12" d="M4863 2349c-15,5 -31,1 -42,-11 -10,-12 -11,-30 -3,-44 8,-13 24,-20 39,-17 18,3 31,19 31,37 0,15 -10,30 -25,35zm3 -80c-18,-7 -40,-1 -52,14 -13,16 -15,38 -5,55 11,17 31,26 51,22 22,-4 37,-24 38,-46 0,-20 -13,-38 -32,-45z"/>
    <path class="fil13" d="M4851 2327c-7,0 -14,-7 -14,-15 0,-7 7,-14 14,-14 8,0 15,7 15,14 0,8 -7,15 -15,15zm8 -35c-9,-3 -19,0 -24,7 -6,7 -7,17 -2,24 4,8 14,12 22,11 11,-2 18,-11 18,-21 0,0 0,0 0,-1 0,0 0,0 0,0 0,-9 -6,-17 -14,-20z"/>
    <path class="fil13" d="M5297 2215c0,-7 10,-7 10,0 0,7 -10,7 -10,0zm5 -8c-5,0 -9,3 -9,8 0,5 4,8 9,9 4,0 8,-4 8,-8 0,-1 1,-1 1,-1 0,0 -1,0 -1,0 0,-5 -3,-8 -8,-8z"/>
    <path class="fil10" d="M5281 2209l-22 0c-3,0 -5,3 -5,6l0 1c0,3 2,5 5,5l22 0c3,0 6,-2 6,-5l0 -1c0,-3 -3,-6 -6,-6z"/>
    <path class="fil12" d="M5333 2235c-4,0 -8,0 -12,0 0,0 0,-1 1,-2 2,-5 5,-10 5,-16 0,-4 -1,-7 -2,-10 5,0 10,0 15,0 -2,10 -5,19 -7,28zm-19 -21c-3,7 -6,13 -9,19l-94 0 9 9 81 0c-1,2 -2,5 -4,7l-72 0 8 10 60 0c-1,2 -2,4 -3,6 -1,3 -3,5 -4,8 0,0 0,0 0,1 -4,8 -11,15 -20,18 -5,2 -10,1 -16,1 -9,0 -18,0 -27,0 -5,-21 -21,-40 -42,-47 -23,-7 -49,-1 -66,16 -9,9 -15,20 -18,31 -20,0 -41,0 -62,0 -34,0 -69,0 -104,0 -7,0 -13,0 -20,0 -5,-21 -21,-40 -42,-47 -23,-7 -49,-1 -66,16 -9,9 -15,20 -18,31 -7,0 -13,0 -20,-3 -4,-2 -7,-5 -10,-9l5 0 0 -12 -10 0c0,0 0,-1 0,-1 0,-9 0,-19 0,-28 0,-2 0,-5 0,-7 0,-7 2,-13 6,-19 6,-8 16,-12 26,-12 5,0 10,0 15,0 19,0 39,0 58,0 13,0 27,0 40,0 5,4 9,8 13,13 2,1 4,3 5,5 4,3 8,5 13,6 0,6 0,13 0,19 0,6 0,11 0,17 0,3 0,6 1,9 2,8 9,12 16,12 1,0 2,0 4,0 8,0 16,0 24,0 24,0 47,0 71,0 7,0 14,0 21,0 3,0 6,0 9,-1 3,-2 6,-5 8,-8 2,-5 4,-9 8,-13 5,-6 14,-11 15,-19 0,-2 0,-3 0,-5 2,0 3,-1 3,-3l0 -1c0,-2 -1,-3 -3,-4 0,-3 0,-5 0,-8 2,-1 3,-2 3,-4l0 -1c0,-1 -1,-3 -3,-3 0,-3 0,-6 0,-10 1,-1 3,-1 4,-3 2,-1 2,-3 2,-6 0,0 0,-1 0,-2 3,3 7,5 11,8 1,1 2,2 3,2 0,0 0,0 1,0 0,0 0,0 0,0 23,0 46,0 70,0 22,0 44,-1 67,0 13,0 27,0 41,0 6,0 11,3 13,8 0,2 0,3 -1,4zm-421 -42c1,0 2,-1 4,-2 7,14 15,28 22,42 0,-1 0,-1 -1,-1 -3,-3 -6,-6 -9,-9 0,-1 -1,-1 -1,-2 -5,-9 -10,-18 -15,-28zm37 80c0,-8 0,-17 0,-26 10,0 20,0 30,0 18,0 35,0 53,0 11,0 23,0 35,-1 17,-2 34,-8 48,-17 1,-1 3,-1 4,-2 0,2 0,4 0,7 -2,0 -3,2 -3,3l0 1c0,2 1,3 3,4 0,0 0,1 0,1 0,3 0,5 0,7 -2,1 -3,2 -3,4l0 1c0,2 1,3 3,3 0,1 0,2 0,3 0,4 -3,7 -6,10 -7,6 -13,12 -17,20 -2,6 -6,10 -13,10 -5,0 -11,0 -16,0 -23,0 -45,0 -67,0 -10,0 -19,0 -28,0 -5,0 -12,1 -16,-2 -10,-4 -7,-17 -7,-26zm124 -114c-3,-3 -7,-5 -10,-8 1,-1 1,-2 2,-3 10,8 20,15 31,23 17,12 34,24 50,37 3,1 5,3 7,5 -2,0 -4,0 -6,0 -8,-6 -15,-11 -23,-17 -17,-12 -34,-25 -51,-37zm-314 120c-1,1 -1,2 -2,3 -4,0 -8,0 -12,0 0,-4 0,-9 0,-14 5,0 9,0 14,0 0,4 0,8 0,11zm602 -54c-6,0 -13,0 -19,0 -4,-7 -12,-12 -21,-12 -19,0 -39,0 -58,0 -31,0 -62,0 -93,0 -4,0 -8,0 -11,0 -10,-8 -21,-15 -31,-23 -17,-12 -34,-25 -51,-37 -4,-3 -8,-6 -11,-8 -1,-1 -2,0 -3,0 -1,2 -2,4 -4,6 0,1 0,2 1,2 10,8 21,16 31,23 11,8 21,15 31,23 -2,0 -4,2 -4,5 0,4 0,7 0,11 -19,15 -43,22 -67,22 -14,0 -29,0 -44,0 -17,0 -33,0 -50,0 -3,0 -6,0 -10,0 -1,0 -2,0 -3,-1 -9,-16 -17,-32 -26,-48 0,0 -1,-1 -2,0 -3,1 -5,2 -8,3 0,0 -1,2 0,2 4,7 7,14 11,21 -1,-1 -2,-1 -3,-1 -4,0 -9,0 -13,0 -17,0 -34,0 -52,0 -15,0 -30,0 -46,0 -5,0 -10,0 -15,1 -12,3 -23,13 -28,25 -3,8 -3,16 -3,24 0,0 0,1 0,2 -5,0 -10,0 -15,0 -1,0 -2,1 -2,2 0,5 0,11 0,17 0,1 1,1 2,1 4,0 9,0 13,0 0,2 0,4 1,5l-20 0 0 12 22 0c0,1 1,2 1,2 1,5 3,9 6,12 8,11 20,17 33,17 4,0 7,0 10,0 2,0 5,-2 5,-4 3,-20 17,-37 37,-44 19,-6 42,-1 56,14 5,5 9,11 11,18 1,2 2,5 2,8 1,1 1,2 2,2 0,1 0,2 0,2 0,2 3,4 5,4 22,0 44,0 66,0 34,0 69,0 104,0 8,0 16,0 24,0 2,0 4,-2 5,-4 3,-20 17,-37 37,-44 19,-6 42,-1 56,14 5,5 9,11 11,18 1,2 2,5 2,8 0,1 1,2 1,2 1,1 1,2 1,2 0,2 3,4 5,4 8,0 17,0 25,0 12,0 22,0 32,-5 8,-5 14,-12 18,-20 0,0 0,0 0,0 6,-11 11,-22 16,-33 3,-5 5,-10 7,-15 5,0 10,0 15,0 0,0 1,0 1,-1 0,0 1,0 1,-1 2,-10 5,-21 8,-31 0,-1 -1,-2 -2,-2z"/>
    <path class="fil13" d="M4945 2257l16 0c2,0 3,-2 3,-4l0 -1c0,-2 -1,-3 -3,-3l-16 0c-2,0 -4,1 -4,3l0 1c0,2 2,4 4,4z"/>
   </g>
   <path class="fil1" d="M6018 2463c-3,0 -7,-3 -7,-7l0 -397c0,-4 4,-7 7,-7 4,0 7,3 7,7l0 397c0,4 -3,7 -7,7z"/>
   <path class="fil1" d="M6022 2064c-52,0 -98,-34 -115,-84 -1,-4 1,-8 5,-9 3,-1 7,1 8,4 15,45 56,76 102,76 47,0 88,-31 101,-75 1,-4 5,-6 8,-5 4,1 6,5 5,8 -15,50 -61,85 -114,85z"/>
   <path class="fil1" d="M6208 1941c-1,0 -3,-1 -4,-2 -3,-3 -3,-7 0,-10 32,-32 40,-84 17,-125 -22,-41 -68,-63 -115,-53 -4,1 -7,-2 -8,-5 0,-4 2,-8 6,-8 52,-11 104,13 129,60 25,46 17,104 -20,141 -1,1 -3,2 -5,2z"/>
   <path class="fil1" d="M5876 1994c-25,0 -47,-16 -53,-39 -1,-4 1,-7 5,-8 4,-1 7,1 8,4 5,17 21,29 40,29 18,0 33,-11 39,-29 2,-4 6,-5 9,-4 4,1 6,5 4,8 -7,24 -28,39 -52,39z"/>
   <path class="fil1" d="M6227 2026c-2,0 -3,0 -5,-2 -2,-3 -2,-7 1,-9 13,-12 16,-32 7,-48 -10,-16 -27,-25 -45,-21 -3,1 -7,-2 -8,-5 -1,-4 2,-7 6,-8 23,-5 46,6 58,28 12,21 8,48 -9,64 -1,1 -3,1 -5,1z"/>
   <path class="fil1" d="M5868 1792c-3,0 -6,-2 -7,-5 -12,-42 5,-87 42,-111 37,-24 86,-21 118,7 3,3 4,7 1,10 -2,3 -7,3 -9,1 -29,-25 -71,-27 -102,-7 -33,21 -47,60 -37,96 1,4 -1,7 -5,8 0,1 -1,1 -1,1z"/>
   <path class="fil1" d="M6021 1710c0,0 -1,0 -1,0 -4,-1 -6,-4 -6,-8 5,-23 25,-40 50,-43 1,0 2,0 3,0 23,0 44,14 51,36 2,3 0,7 -4,8 -3,1 -7,-1 -8,-4 -6,-17 -23,-27 -41,-27 -19,3 -34,16 -37,33 -1,3 -4,5 -7,5z"/>
   <path class="fil1" d="M5802 1994c-1,0 -3,-1 -4,-2 -38,-35 -49,-93 -26,-140 24,-47 75,-73 128,-64 4,0 6,4 6,7 -1,4 -5,7 -8,6 -47,-8 -93,15 -114,57 -20,42 -11,93 23,124 3,3 3,7 0,10 -1,1 -3,2 -5,2z"/>
   <path class="fil1" d="M6134 1835c-3,0 -6,-2 -7,-5 -6,-23 4,-48 23,-60 22,-14 48,-13 66,3 2,3 3,7 0,10 -2,2 -7,3 -10,0 -12,-12 -32,-12 -48,-2 -15,9 -22,28 -18,46 1,3 -1,7 -5,8 0,0 -1,0 -1,0z"/>
   <path class="fil1" d="M6101 1864c-3,0 -5,-2 -6,-5 -12,-38 -47,-63 -86,-63 -38,0 -73,26 -85,63 -1,3 -5,6 -8,4 -4,-1 -6,-5 -5,-8 14,-43 54,-73 98,-73 45,0 85,29 99,73 1,3 -1,7 -5,8 -1,0 -1,1 -2,1z"/>
   <path class="fil1" d="M6139 1893c-3,0 -5,-1 -6,-4 -5,-14 -18,-24 -32,-24 -15,0 -28,9 -33,24 -1,3 -5,5 -8,4 -4,-1 -6,-5 -5,-9 7,-20 25,-33 46,-33 20,0 38,14 45,33 1,4 -1,8 -5,9 0,0 -1,0 -2,0z"/>
   <path class="fil1" d="M5930 2098c-51,0 -98,-34 -114,-83 -1,-4 1,-8 5,-9 3,-1 7,1 8,5 14,44 56,74 101,74 21,0 42,-6 62,-18 3,-2 7,-1 9,2 2,3 1,7 -2,9 -22,14 -44,21 -69,20z"/>
   <path class="fil1" d="M6115 2075c-1,0 -2,0 -3,0l0 0c-17,0 -33,-5 -50,-14 -3,-2 -4,-6 -2,-10 2,-3 6,-4 9,-2 16,9 31,13 46,13 32,0 60,-22 71,-54 1,-4 5,-6 8,-4 4,1 6,5 4,8 -12,38 -46,63 -83,63z"/>
   <path class="fil1" d="M193 1119c-2,0 -3,-1 -4,-2 -15,-12 -26,-13 -38,-4 -3,3 -7,2 -10,-1 -2,-3 -1,-7 1,-9 17,-14 36,-12 55,4 3,2 3,7 1,9 -1,2 -3,3 -5,3z"/>
   <path class="fil1" d="M193 1119c-2,0 -4,-1 -5,-3 -3,-2 -2,-7 1,-9 19,-16 38,-18 54,-4 3,2 4,6 1,9 -2,3 -6,4 -9,1 -12,-9 -23,-8 -38,4 -1,1 -3,2 -4,2z"/>
   <path class="fil1" d="M175 1697c-2,0 -3,0 -4,-1 -15,-12 -26,-14 -38,-4 -3,2 -7,2 -10,-1 -2,-3 -2,-7 1,-10 17,-13 36,-12 55,4 3,3 3,7 1,10 -1,2 -3,2 -5,2z"/>
   <path class="fil1" d="M175 1697c-2,0 -4,0 -5,-2 -3,-3 -2,-7 1,-10 19,-16 38,-17 54,-4 3,3 4,7 1,10 -2,3 -6,3 -9,1 -12,-10 -23,-8 -38,4 -1,1 -3,1 -4,1z"/>
   <g>
    <path class="fil12" d="M10622 2367c5,-9 -3,-4 12,-6 9,-2 17,1 24,3 10,3 15,2 27,2l417 0c20,0 43,-9 59,-5 7,2 4,-2 7,4 5,13 -39,8 -61,8l-453 0c-46,0 -26,0 -32,-6zm295 -161l44 1 4 149 -46 0 -2 -150zm-49 0l43 0 3 150 -46 0 0 -150zm-161 150l-46 0 11 -132 44 -7 -9 139zm259 -148l44 3 7 145 -47 0 -4 -148zm-156 148l-46 0 6 -145 44 -3 -4 148zm254 -139c13,2 33,2 43,9 5,10 13,112 12,130l-45 0 -10 -139zm-49 -5l42 4c4,10 12,125 10,140l-45 0 -7 -144zm-153 144l-46 0 -1 -12 4 -137 44 -1 -1 150zm-104 0l-45 0c-2,-16 5,-128 10,-138 9,-6 30,-6 43,-6l-8 144zm305 -158l44 6 1 15 -45 -7 0 -14zm-390 21l1 -14 43 -8 -1 14 -43 8zm49 -8l0 -14 44 -6 0 14 -44 6zm292 -8l0 -11 43 4 1 14 -33 -2c-12,-2 -6,0 -11,-5zm-48 -15l42 3 1 15 -43 -4 0 -14zm-195 18l1 -15c11,-2 32,-6 43,-1l0 10c-11,5 -19,3 -44,6zm146 -8l0 -12 44 1 -1 15 -43 -4zm-49 -11l43 -1 1 14 -43 0 -1 -13zm-48 15l0 -14 43 -2 0 13 -43 3zm241 -29l43 7 3 19 -44 -7 -2 -19zm-387 26l5 -19 17 -4c8,-1 15,-2 22,-3 1,23 6,18 -44,26zm338 -32c11,1 22,2 32,3 15,2 13,3 13,20l-43 -4 -2 -19zm-288 24l0 -18c11,-4 31,-6 43,-5l0 18 -43 5zm240 -28c11,0 22,1 32,2 15,2 12,4 12,20l-44 -2 0 -20zm-125 -1l25 -2c2,9 3,12 -1,21l-34 2 -9 -2c1,-12 -1,-10 2,-18l17 -1zm-67 24l1 -19 42 -4 0 19 -43 4zm145 -25l42 2 1 18 -44 0 1 -20zm-49 -1l44 1 0 19 -44 1 0 -21zm194 -7l42 7 0 13 -44 -6c1,-2 0,-7 0,-8 1,-8 1,-4 2,-6zm-386 22l1 -15 44 -8 -1 15 -44 8zm336 -27l42 3 1 15 -42 -5 -1 -13zm-287 18c1,-16 -5,-16 43,-19l0 13c-10,5 -31,6 -43,6zm48 -19l43 -4 0 14 -43 4 0 -14zm191 -4l42 3 1 15 -41 -3 -2 -15zm-47 -1c13,-1 31,-2 42,2l0 14 -42 -2 0 -14zm-48 -1l42 -1 1 16c-9,1 -35,2 -43,-1l0 -14zm-48 16l1 -14 42 -2c0,3 0,6 0,8 -1,7 -1,4 -2,6l-41 2zm93 -269c47,3 37,-20 40,104 1,46 1,103 5,146l-42 -2 -3 -248zm-43 1l37 -1 3 247 -41 0 1 -246zm86 2c11,1 28,1 36,6 3,7 15,227 12,244 -9,-1 -23,-1 -32,-2 -15,-2 -10,-11 -10,-28 -2,-59 -8,-172 -6,-220zm42 5c21,3 30,3 38,8l17 242 -43 -5 -12 -245zm44 7l38 9 21 242 -41 -7c-5,-10 -18,-218 -18,-244zm-228 234l-41 4 12 -247 37 -3c1,28 -4,235 -8,246zm-137 17l21 -241 37 -10c2,33 -10,166 -13,216 -2,30 6,29 -45,35zm186 -18l-43 2 7 -248 38 -2 -2 248zm-95 4c-11,4 -33,7 -43,4l16 -239c2,-4 14,-6 19,-7 7,-1 12,-2 20,-2l-12 244zm143 -450l33 3 6 192 -37 -2 -2 -193zm-39 0l33 -1 3 193 -37 1 1 -193zm-39 1l35 -2 -3 193 -37 3 5 -194zm-53 199l-38 6 13 -191 34 -8 -9 193zm43 -5l-38 4 9 -191 33 -7 -4 194zm166 -185l35 7 12 190 -38 -7 -9 -190zm-39 4l0 -10 34 5 9 191 -37 -5 -2 -34 -4 -147zm-213 194l-39 9 16 -187 35 -13 -12 191zm292 -188l26 7c9,4 4,0 8,5l17 184 -38 -8 -13 -188zm-359 -45c74,-10 123,-30 214,-29 73,0 145,16 215,30l-30 49c-77,-16 -84,-28 -180,-31 -106,-3 -148,26 -181,31l-38 -50zm-3 -5l0 -55c55,-21 152,-29 217,-31 74,-3 152,11 220,30l0 58c-142,-24 -185,-44 -332,-21 -34,5 -73,15 -105,19zm0 -62l0 -25c77,-32 242,-36 332,-24 40,6 68,15 104,23l1 26c-32,-5 -66,-16 -101,-21 -34,-6 -82,-9 -117,-8 -60,1 -109,6 -168,18 -15,3 -38,10 -51,11zm62 -49c6,-6 21,-10 32,-13 -1,9 4,13 -23,15 -17,2 -3,2 -9,-2zm288 -13c7,1 10,2 17,5 3,1 5,2 7,3 1,0 3,1 3,2 3,1 3,2 5,3 -4,3 7,6 -19,0 -14,-2 -12,0 -13,-13zm-36 3l-1 -14 32 8 0 13c-11,-1 -23,-1 -31,-7zm-216 7l1 -11 31 -9c0,12 2,15 -7,17 -6,2 -18,3 -25,3zm180 -27c13,0 24,2 31,7l1 15 -31 -2 -1 -20zm-107 0l31 -3 -1 21 -29 2 -1 -20zm-36 23l0 -16c9,-4 21,-5 31,-6l0 19 -31 3zm107 -26l30 2 2 20 -32 -1 0 -21zm-35 0l30 -1 1 23 -31 -1 0 -21zm34 -136l28 2 4 130 -30 -2 -2 -130zm-33 1l28 -1 1 129 -30 2 1 -130zm-6 130l-30 2c-1,-21 0,-44 1,-65 2,-66 -5,-70 30,-67l-1 130zm-36 4l-30 4 6 -133 28 -4 -4 133zm-36 6l-31 7 10 -136c7,-3 18,-4 28,-6l-7 135zm-67 19l12 -141 28 -7 -8 130c-1,10 -2,11 -32,18zm277 -148l29 7 12 141 -32 -11 -9 -137zm-33 -5l28 4 9 135 -31 -7 -6 -132zm-33 -5l27 3 7 133 -30 -5 -4 -131zm66 3l0 -13 27 6 1 15c-9,-2 -21,-4 -28,-8zm-264 8l1 -14 27 -7 0 13c-10,6 -15,5 -28,8zm230 -26c9,0 20,1 28,5l1 10c-4,2 -4,3 -13,1 -5,0 -10,-1 -15,-3l-1 -13zm-197 19l1 -15 28 -5 -1 14 -28 6zm164 -11l0 -13 28 4 1 13 -21 -1c-7,-2 -5,-2 -8,-3zm-131 5l1 -13c7,-4 19,-4 28,-5l-1 15 -28 3zm99 -8l0 -12 27 2 1 14 -20 0c-13,-3 -4,-1 -8,-4zm-33 -11l27 -1 1 14 -27 1 -1 -14zm-33 14l0 -11c3,-1 2,-1 6,-2l21 -1 1 14c-5,0 -8,1 -13,1l-15 -1zm163 -18c30,5 26,3 29,12 -3,2 -1,3 -8,2 -24,-2 -21,-9 -21,-14zm-261 16c1,-10 6,-15 24,-15 3,0 3,1 5,1 -2,8 4,10 -29,14zm33 -8c2,-12 -3,-9 29,-14 -1,9 5,12 -29,14zm195 -14c34,2 28,5 29,14 -31,-5 -27,-1 -29,-14zm-135 -4l1 10 -28 3c2,-11 -1,-10 10,-12 5,0 12,0 17,-1zm104 1c31,-3 26,5 27,12 -32,-3 -28,-1 -27,-12zm-33 1c7,-6 17,-5 27,-1l0 7c-6,2 -10,1 -16,1 -12,-1 -8,1 -11,-7zm-60 -2l22 -2 1 9 -21 4c-9,-1 -3,1 -8,-4l1 -7 5 0zm27 5c2,-9 1,-8 14,-8 10,0 9,-1 14,5 -1,3 5,11 -20,7 -11,-3 -4,-1 -8,-4zm157 0c-6,3 -20,-3 -28,-4 4,-4 -7,-8 15,-2 7,1 9,1 13,6zm-286 0c1,-1 2,-2 5,-3l17 -5c11,0 1,-1 6,3 -3,1 -9,3 -13,4 -10,2 -9,3 -15,1zm226 -13c6,-2 18,0 21,2 8,3 1,-1 6,5 -11,-1 -20,-2 -27,-7zm-193 7c7,-8 20,-9 27,-7l-12 5c-5,1 -10,1 -15,2zm161 -9c3,-4 -1,-3 7,-4 19,-1 19,7 19,8l-26 -4zm-128 2c0,-3 6,-4 11,-5 17,-2 13,1 15,3 -6,3 -20,5 -26,2zm218 5c-21,-4 -26,-1 -27,-21l27 7 0 14zm-122 -10c3,-3 -5,-2 6,-3l20 3c-6,6 -21,4 -26,0zm-32 0c6,-6 19,-5 26,0 -7,3 -19,3 -26,0zm-32 0c5,-2 20,-5 27,0 -6,4 -21,6 -27,0zm-69 -10l-1 13 -27 6 1 -13 27 -6zm203 9c-10,-3 -7,-3 -8,-16l28 4 0 15c-3,0 -17,-2 -20,-3zm-170 -15l-1 13 -27 5 0 -14 28 -4zm130 -5c24,3 28,-3 28,18l-26 -3 -2 -15zm-113 1c4,0 9,0 14,-1l-1 14 -27 4 1 -12 13 -5zm83 -2l25 1 1 15 -27 -3 1 -13zm-5 -1l-1 13c-7,3 -16,2 -26,2l0 -15 27 0zm-58 16c-4,-20 7,-15 26,-15l-1 14 -25 1zm-32 -17c0,-18 1,-39 2,-57 2,-34 -6,-34 27,-37l-3 92 -26 2zm94 -95l23 2c4,14 6,80 2,91l-25 -3 0 -90zm-30 0l24 0 1 91 -26 0 1 -91zm-30 1l25 -2 -1 92 -27 2 3 -92zm89 0l25 4 4 89c-7,2 -16,0 -26,-1l-3 -92zm61 99c-8,0 -23,1 -26,-7l-4 -88c32,5 24,1 26,37 1,19 3,39 4,58zm0 -90l25 7 7 91 -26 -5 -6 -93zm-248 99c0,-19 3,-42 5,-61 2,-31 -4,-34 28,-37l-7 90c-5,3 0,1 -7,3l-19 5zm63 -103l-4 91 -27 4 6 -92 25 -3zm151 -66c22,4 24,0 25,22 1,14 1,27 3,42l-25 -5 -3 -59zm-119 -6l-2 62 -25 3 4 -62 23 -3zm62 -2l23 3 2 61 -25 -1 0 -63zm-28 0l22 1 1 61 -24 0 1 -62zm-28 1l22 0 0 61 -25 2 3 -63zm143 14l23 9 5 54 -25 -6 -3 -57zm-59 -12l24 4 3 60 -25 -2 -2 -62zm-148 11l-4 59 -25 5 4 -55 25 -9zm29 -7l-3 61 -25 3 4 -59 24 -5zm-84 -26c52,-5 97,-22 155,-21 56,1 102,14 155,22 -4,14 -15,23 -20,36 -53,-11 -64,-22 -132,-23 -65,-1 -79,9 -130,22 -10,-13 -19,-21 -28,-36zm-2 -45c83,-31 235,-28 316,1l0 40c-21,-1 -54,-10 -77,-14 -107,-18 -138,-4 -240,14l1 -41zm-1 -22c57,-31 252,-32 317,-1l-1 17c-23,-4 -46,-12 -73,-16 -87,-12 -158,-4 -243,17l0 -17zm176 -100l20 1 1 70 -20 -1 -1 -70zm-5 0l-1 71 -19 -1c-1,-14 -3,-58 2,-70l18 0zm-47 72c0,-15 1,-31 2,-46 0,-28 -5,-23 20,-26l-1 71 -21 1zm-2 -69c-2,15 -2,33 -2,49 -1,24 2,21 -22,22l3 -68 21 -3zm-51 75c7,-70 -4,-65 25,-71 0,15 -1,56 -5,68l-20 3zm0 -64l-5 65 -21 2 5 -60 21 -7zm129 -12c26,2 21,3 22,29 1,14 2,28 2,42l-21 -1 -3 -70zm52 11l20 8 5 61 -21 -3 -4 -66zm-25 -7l19 6 5 65 -22 -3 -2 -68zm-73 -248l14 0c2,27 5,220 1,236l-18 0 3 -236zm-26 238c-2,-7 3,-222 6,-237l15 -1 -3 237 -18 1zm46 -237l15 1 6 236 -19 -1 -2 -236zm61 12c17,5 16,3 17,21 1,10 2,21 3,30 5,61 13,134 16,193l-20 -8 -16 -236zm-14 228c-16,-1 -20,2 -21,-13 -2,-45 -7,-201 -5,-225l14 4 12 234zm-119 2c-1,-42 6,-141 9,-193 2,-50 -4,-46 17,-48l-8 238 -18 3zm112 -236l16 5 15 235 -19 -6 -12 -234zm-138 241c0,-40 6,-89 9,-129l6 -97c1,-17 1,-13 17,-16l-13 238 -19 4zm11 -236l-16 238 -21 7 21 -240 16 -5zm-37 -25c14,-10 87,-19 108,-19 23,1 90,10 109,19 -3,10 -9,15 -13,26 -14,-3 -29,-9 -44,-12 -53,-12 -92,-6 -141,12 -7,-8 -14,-17 -19,-26zm-4 -38c42,-8 66,-17 112,-17 76,0 71,11 113,16l-1 33c-37,-6 -71,-17 -112,-18 -42,0 -73,12 -112,17l0 -31zm1 -6c-2,-16 2,-14 17,-17 56,-13 99,-19 158,-8 25,4 47,6 49,21 -6,4 0,2 -9,2l-18 -5c-70,-17 -130,-8 -197,7zm102 -82l27 1 -1 47 -26 -1 0 -47zm-11 47l-58 8 6 -63c3,-6 44,-20 55,-20 26,-1 -6,4 20,6 8,0 7,-1 11,-3 8,-4 -6,-2 9,-3 14,-1 47,15 56,19l6 64 -57 -8 -1 -61 -44 0c1,8 -1,4 2,6 12,-5 27,-3 40,-3l-4 57c0,-1 -1,1 -1,1l1 -49 -35 0 0 48 -6 1zm25 -74c-3,0 -5,0 -8,-1 1,-13 11,-14 14,-3 -4,3 0,2 -6,4zm-66 -121c25,-6 33,-13 64,-12 12,0 55,6 61,12 2,3 1,-2 3,8 0,1 0,7 1,9l9 115c-9,-3 -23,-10 -35,-14 -5,-1 -18,-3 -21,-4 -13,-6 3,-11 -18,-9 -23,1 1,3 -18,9 -5,2 -15,3 -21,5 -13,3 -24,9 -36,13l11 -132zm-12 -22c30,-19 120,-15 151,0l-9 17c-25,-5 -36,-12 -66,-12 -25,-1 -43,3 -64,12 -5,-6 -9,-10 -12,-17zm-3 -29c59,-9 94,-22 156,1l0 22c-25,-4 -49,-12 -77,-13 -28,0 -54,8 -80,12l1 -22zm0 -7c2,-9 4,-7 15,-10 39,-10 71,-12 111,-4 30,6 30,6 30,16 -31,-6 -44,-11 -80,-11 -33,0 -71,12 -76,9zm92 -24l-25 1 -2 -11c1,-4 0,-6 0,-6l0 19 -9 0c-14,-2 -24,4 -38,3l6 -41c35,-15 76,-16 111,1l5 42c-13,-3 -24,-7 -36,-5 -5,-4 -5,10 -5,-11 0,-9 2,-6 4,-8l-44 0c7,3 9,3 20,2l22 0 0 13c-5,4 8,9 -9,1zm39 -72l4 31c-22,-6 -32,-11 -56,-11 -25,0 -35,8 -55,11l2 -21 -5 5 -8 66 -18 5c-3,69 6,43 14,65 4,11 -15,195 -17,208l-32 9c-8,87 9,57 22,89 4,10 -13,182 -16,207 -3,30 -4,72 -9,102l-44 11c0,12 -2,63 0,72 1,5 26,31 30,39 8,13 0,44 -1,62 -6,69 -21,277 -30,326 -19,3 -46,8 -60,16l-2 96c7,6 44,47 46,54 5,12 -49,607 -52,636l-38 1 0 21 556 0 0 -22 -48 -1c-3,-64 -11,-139 -18,-203 -13,-122 -24,-278 -34,-404 -2,-29 -5,-23 9,-44 19,-28 28,-34 28,-53l0 -82 -41 -11c-5,-1 -11,-3 -13,-7 -1,-2 -35,-371 -31,-383 5,-11 25,-33 26,-44 2,-16 0,-51 0,-68l-39 -12c-9,-65 -12,-138 -18,-204 -2,-16 -10,-93 -8,-103 3,-14 17,-23 19,-38 1,-12 0,-42 -1,-54l-27 -8c-3,-20 -21,-196 -16,-209 9,-24 13,1 11,-63l-16 -6 -9 -84c1,5 2,3 -5,3z"/>
    <path class="fil10" d="M10668 1660c32,-4 71,-14 105,-19 147,-23 190,-3 332,21l0 -58c-68,-19 -146,-33 -220,-30 -65,2 -162,10 -217,31l0 55z"/>
    <path class="fil14" d="M10730 1083l-1 41c102,-18 133,-32 240,-14 23,4 56,13 77,14l0 -40c-81,-29 -233,-32 -316,-1z"/>
    <path class="fil14" d="M10775 668l0 31c39,-5 70,-17 112,-17 41,1 75,12 112,18l1 -33c-42,-5 -37,-16 -113,-16 -46,0 -70,9 -112,17z"/>
    <polygon class="fil15" points="10838,1382 10810,1386 10804,1519 10834,1515 "/>
    <polygon class="fil15" points="10911,1510 10941,1512 10937,1382 10909,1380 "/>
    <path class="fil12" d="M10844 230c0,-15 -1,-15 14,-19 10,-3 19,-5 29,-5 12,0 20,1 31,4 17,4 17,3 19,19 -42,-10 -54,-11 -93,1zm-12 63l5 -5 5 -45c45,-17 52,-14 96,0l4 35c7,0 6,2 5,-3 -1,-16 -2,-15 0,-31 1,-16 0,-2 -3,-13 -4,-12 0,-5 0,-14 0,-7 -1,-6 -3,-11 -4,-9 -6,-42 -5,-52 -9,6 -4,-6 -6,5l4 44c-35,-11 -53,-10 -88,0l4 -31c0,-2 -1,-7 -2,-10 -1,-7 -1,-4 -3,-8 1,22 -2,38 -8,56 -4,9 0,6 1,15 0,11 -4,7 -5,13 -1,7 1,7 2,15 1,9 -3,29 -3,40z"/>
    <path class="fil10" d="M10811 381l-1 22c26,-4 52,-12 80,-12 28,1 52,9 77,13l0 -22c-62,-23 -97,-10 -156,-1z"/>
    <path class="fil12" d="M10843 144l9 -4c24,-7 64,-8 84,4l-4 9c-26,-5 -38,-14 -71,-4 -14,5 -11,7 -18,-5zm-3 -7c0,-15 0,-14 16,-17 22,-4 39,-5 61,-1 28,4 22,7 22,15l-4 1c-12,2 -20,-5 -46,-5 -18,-1 -33,5 -49,7zm76 -26c-4,1 -3,3 -12,0l0 -11c13,3 10,0 12,11zm-53 2c0,-12 -1,-12 11,-12l-1 11 -10 1zm20 -14l12 0 0 13 -13 -1 1 -12zm-43 19c0,-18 -1,-24 13,-31 10,-6 24,-8 37,-8 12,0 26,4 35,9 13,7 14,13 13,30 -26,-5 -5,-5 -18,-17 -10,-9 -41,-9 -55,-5 -18,6 -7,8 -13,20l-12 2zm5 36c2,4 2,1 3,8 1,3 2,8 2,10l0 -12c22,-15 56,-11 80,-1 2,-11 -3,1 6,-5 13,-9 8,-53 5,-59 -12,-25 -93,-29 -105,0 0,2 -9,49 9,59z"/>
    <path class="fil14" d="M10814 1310l26 -2 3 -92c-33,3 -25,3 -27,37 -1,18 -2,39 -2,57z"/>
    <path class="fil10" d="M10940 1308c10,1 19,3 26,1l-4 -89 -25 -4 3 92z"/>
    <polygon class="fil10" points="10792,1159 10788,1218 10813,1215 10816,1154 "/>
    <path class="fil14" d="M10967 1214l25 5c-2,-15 -2,-28 -3,-42 -1,-22 -3,-18 -25,-22l3 59z"/>
    <path class="fil12" d="M10867 627l6 -1 0 -48 35 0 -1 49c0,0 1,-2 1,-1l4 -57c-13,0 -28,-2 -40,3 -3,-2 -1,2 -2,-6 -6,10 -3,43 -3,61z"/>
    <path class="fil16" d="M10867 353l9 0 0 -19c0,0 1,2 0,6l3 1 24 -1 0 10c17,8 4,3 9,-1l0 -13 -22 0c-11,1 -13,1 -20,-2l44 0c-2,2 -4,-1 -4,8 0,21 0,7 5,11l-1 -23 -46 0 -1 23z"/>
    <path class="fil17" d="M10880 581l23 0 0 46 -23 -1 0 -45zm-2 46l26 1 1 -47 -27 -1 0 47z"/>
   </g>
   <path class="fil7 str2" d="M10601 1431c22,0 40,18 40,40 0,22 -18,40 -40,40 -23,0 -41,-18 -41,-40 0,-22 18,-40 41,-40z"/>
   <path class="fil1" d="M10336 901c-2,0 -4,-1 -5,-3 -10,-11 -19,-17 -27,-17 0,0 0,0 0,0 -7,0 -14,4 -21,12 -3,3 -7,3 -10,1 -3,-3 -3,-7 -1,-10 10,-11 21,-17 32,-17 0,0 0,0 0,0 13,1 25,8 37,23 3,2 2,7 -1,9 -1,1 -3,2 -4,2z"/>
   <path class="fil1" d="M10336 901c-2,0 -3,-1 -5,-2 -2,-3 -3,-7 0,-10 13,-14 26,-22 38,-22 0,0 1,0 1,0 11,0 21,6 31,17 2,3 2,7 -1,10 -3,2 -7,2 -10,-1 -6,-8 -13,-12 -20,-12 -1,0 -1,0 -1,0 -8,0 -18,6 -28,17 -1,2 -3,3 -5,3z"/>
   <path class="fil1" d="M9907 1257l-88 0c-18,0 -33,-14 -33,-31 0,-15 10,-28 23,-32 5,-17 21,-29 40,-29 15,0 30,9 37,22 15,-3 27,6 29,20 13,4 19,15 18,25 0,13 -10,25 -26,25zm-58 -79l0 0c-14,0 -26,10 -28,23l-1 5 -5 1c-8,1 -15,10 -15,19 0,9 8,17 19,17l88 0c8,0 12,-5 13,-11 0,-6 -3,-12 -12,-13l-7 -1 0 -9c0,-5 -3,-9 -9,-9 -4,0 -4,0 -5,1l-8 8 -3 -11c-3,-11 -15,-20 -27,-20z"/>
   <path class="fil1 str1" d="M5097 234c68,0 99,2 231,-5 6,0 20,-51 -187,-54 -5,0 -9,-5 -8,-10 2,-7 1,-16 -2,-23 -15,-43 -41,-84 -80,-109 -39,-25 -90,-33 -132,-13 -41,19 -67,60 -89,100 -1,2 -4,1 -5,-1 -12,-43 -55,-76 -101,-75 -44,2 -85,39 -94,82 0,3 -3,4 -5,2 -17,-15 -52,-7 -55,17 -2,12 2,27 -7,35 -4,3 -8,3 -13,4 -46,7 -92,12 -138,16l0 29c9,0 18,0 26,0 75,1 150,1 224,2 148,1 287,2 435,3z"/>
   <path class="fil1 str1" d="M918 234c69,0 100,2 231,-5 7,0 20,-51 -187,-54 -4,0 -8,-5 -7,-10 2,-7 1,-16 -2,-23 -15,-43 -42,-84 -80,-109 -39,-25 -90,-33 -132,-13 -41,19 -67,60 -89,100 -1,2 -4,1 -5,-1 -12,-43 -56,-76 -101,-75 -45,2 -85,39 -94,82 0,3 -4,4 -6,2 -16,-15 -51,-7 -55,17 -1,12 3,27 -6,35 -4,3 -9,3 -13,4 -46,7 -92,12 -138,16l0 29c8,0 17,0 26,0 75,1 149,1 224,2 148,1 286,2 434,3z"/>
   <path class="fil1 str1" d="M10390 234c68,0 99,2 231,-5 6,0 20,-51 -187,-54 -5,0 -9,-5 -8,-10 2,-7 1,-16 -1,-23 -16,-43 -42,-84 -81,-109 -39,-25 -90,-33 -132,-13 -41,19 -66,60 -89,100 -1,2 -4,1 -5,-1 -11,-43 -55,-76 -100,-75 -45,2 -86,39 -94,82 -1,3 -4,4 -6,2 -16,-15 -52,-7 -55,17 -2,12 3,27 -7,35 -4,3 -8,3 -13,4 -46,7 -92,12 -138,16l0 29c9,0 18,0 26,0 75,1 150,1 224,2 148,1 287,2 435,3z"/>
   <g>
    <polygon class="fil12" points="10114,548 10187,548 10187,556 10114,556 "/>
    <polygon class="fil12" points="10146,588 10146,516 10155,516 10155,588 "/>
   </g>
   <g>
    <polygon class="fil12" points="5373,607 5446,607 5446,616 5373,616 "/>
    <polygon class="fil12" points="5405,648 5405,575 5414,575 5414,648 "/>
   </g>
   <g>
    <polygon class="fil12" points="3295,717 3367,717 3367,725 3295,725 "/>
    <polygon class="fil12" points="3327,757 3327,684 3335,684 3335,757 "/>
   </g>
   <g>
    <polygon class="fil12" points="411,866 483,866 483,874 411,874 "/>
    <polygon class="fil12" points="443,907 443,834 451,834 451,907 "/>
   </g>
   <g>
    <polygon class="fil12" points="1686,82 1759,82 1759,90 1686,90 "/>
    <polygon class="fil12" points="1719,122 1719,49 1727,49 1727,122 "/>
   </g>
   <path class="fil4" d="M7202 326l-159 0c-32,0 -59,-26 -59,-56 0,-26 18,-50 42,-57 9,-31 38,-53 71,-53 29,0 55,16 68,39 27,-4 49,12 52,36 24,7 34,28 33,47 -1,22 -18,44 -48,44zm-105 -142l0 0c-24,0 -45,18 -49,41l-1 9 -10 1c-15,2 -28,18 -28,35 0,17 16,32 34,32l159 0c16,0 23,-11 23,-21 1,-10 -4,-22 -21,-24l-11 -1 0 -16c0,-10 -7,-17 -17,-17 -8,0 -8,1 -9,2l-14 14 -6 -20c-7,-20 -27,-35 -50,-35z"/>
   <g>
    <polygon class="fil12" points="2464,590 2537,590 2537,598 2464,598 "/>
    <polygon class="fil12" points="2497,631 2497,558 2505,558 2505,631 "/>
   </g>
   <g>
    <path class="fil1" d="M4575 502l-88 0c-17,0 -32,-15 -32,-32 0,-14 10,-27 23,-31 5,-17 21,-30 39,-30 16,0 30,9 38,22 15,-2 27,7 28,20 14,4 19,16 19,26 -1,12 -10,25 -27,25zm-58 -79l0 0c-13,0 -25,10 -27,23l-1 5 -5 0c-8,1 -16,10 -16,19 0,10 9,18 19,18l88 0c9,0 13,-6 13,-12 0,-5 -3,-11 -12,-12l-6 -1 0 -9c0,-6 -4,-9 -9,-9 -4,0 -5,0 -5,0l-8 8 -3 -10c-4,-12 -15,-20 -28,-20z"/>
    <path class="fil12" d="M4551 426l62 0c2,0 4,2 4,4l0 0c0,2 -2,4 -4,4l-62 0 0 -8z"/>
    <path class="fil12" d="M4582 452l62 0c2,0 4,2 4,4l0 0c0,3 -2,5 -4,5l-62 0 0 -9z"/>
   </g>
   <g>
    <path class="fil1" d="M3825 273l-88 0c-18,0 -33,-14 -33,-31 0,-14 10,-28 23,-31 5,-18 22,-30 40,-30 16,0 30,9 37,22 16,-3 28,6 29,20 14,4 19,15 19,26 -1,12 -10,24 -27,24zm-58 -78l0 0c-13,0 -25,10 -27,22l-1 5 -5 1c-9,1 -16,10 -16,19 0,9 9,18 19,18l88 0c9,0 13,-6 13,-12 0,-5 -3,-12 -12,-13l-6 0 0 -9c0,-6 -4,-10 -10,-10 -4,0 -4,0 -4,1l-8 8 -4 -11c-3,-11 -15,-19 -27,-19z"/>
    <path class="fil12" d="M3800 197l63 0c2,0 4,2 4,4l0 0c0,3 -2,5 -4,5l-63 0 0 -9z"/>
    <path class="fil12" d="M3831 224l63 0c2,0 4,2 4,4l0 0c0,2 -2,4 -4,4l-63 0 0 -8z"/>
   </g>
   <g>
    <path class="fil2" d="M3841 708l-89 0c-17,0 -32,-14 -32,-31 0,-15 10,-28 23,-32 5,-17 21,-29 39,-29 16,0 31,9 38,22 15,-3 27,6 29,20 13,4 19,15 18,26 -1,12 -10,24 -26,24zm-59 -79l0 0c-13,0 -25,10 -27,23l-1 5 -5 1c-8,1 -16,10 -16,19 0,9 9,17 19,17l89 0c8,0 12,-5 12,-11 1,-5 -2,-12 -12,-13l-6 -1 0 -8c0,-6 -3,-10 -9,-10 -4,0 -4,0 -5,1l-8 8 -3 -11c-4,-11 -15,-20 -28,-20z"/>
    <path class="fil18" d="M3816 632l62 0c3,0 4,2 4,4l0 0c0,3 -1,5 -4,5l-62 0 0 -9z"/>
    <path class="fil18" d="M3847 658l62 0c2,0 4,2 4,5l0 0c0,2 -2,4 -4,4l-62 0 0 -9z"/>
   </g>
   <g>
    <path class="fil1" d="M4294 1209l-88 0c-17,0 -32,-14 -32,-31 0,-14 9,-27 22,-31 6,-17 22,-30 40,-30 16,0 30,9 38,22 15,-2 27,7 28,20 14,4 19,16 19,26 -1,12 -10,24 -27,24zm-58 -78l0 0c-13,0 -25,10 -27,23l-1 5 -5 0c-9,1 -16,10 -16,19 0,10 9,18 19,18l88 0c9,0 13,-6 13,-12 0,-5 -3,-12 -12,-13l-6 0 0 -9c0,-6 -4,-10 -10,-10 -4,0 -4,1 -4,1l-8 8 -3 -11c-4,-11 -15,-19 -28,-19z"/>
    <path class="fil12" d="M4270 1133l62 0c2,0 4,2 4,5l0 0c0,2 -2,4 -4,4l-62 0 0 -9z"/>
    <path class="fil12" d="M4301 1160l62 0c2,0 4,2 4,4l0 0c0,2 -2,4 -4,4l-62 0 0 -8z"/>
   </g>
   <g>
    <path class="fil1" d="M5397 841l-88 0c-18,0 -33,-14 -33,-31 0,-15 10,-28 23,-32 5,-17 21,-29 40,-29 15,0 30,9 37,22 15,-3 27,6 29,20 13,4 19,15 18,26 0,12 -10,24 -26,24zm-58 -78l0 0c-14,0 -26,10 -28,22l-1 5 -5 1c-8,1 -15,10 -15,19 0,9 8,18 19,18l88 0c8,0 12,-6 13,-12 0,-5 -3,-12 -12,-13l-7 0 0 -9c0,-6 -3,-10 -9,-10 -4,0 -4,0 -5,1l-8 8 -3 -11c-3,-11 -15,-19 -27,-19z"/>
    <path class="fil12" d="M5372 765l62 0c3,0 5,2 5,4l0 0c0,3 -2,5 -5,5l-62 0 0 -9z"/>
    <path class="fil12" d="M5403 792l62 0c3,0 4,1 4,4l0 0c0,2 -1,4 -4,4l-62 0 0 -8z"/>
   </g>
   <g>
    <path class="fil4" d="M6332 959l-89 0c-17,0 -32,-14 -32,-31 0,-14 10,-27 23,-31 5,-17 21,-30 39,-30 16,0 31,9 38,22 15,-2 27,7 29,20 13,4 19,16 18,26 -1,12 -10,24 -26,24zm-59 -78l0 0c-13,0 -25,10 -27,23l-1 5 -5 0c-8,1 -16,10 -16,19 0,10 9,18 19,18l89 0c8,0 12,-6 12,-12 1,-5 -2,-12 -12,-13l-6 0 0 -9c0,-6 -3,-9 -9,-9 -4,0 -4,0 -5,0l-8 8 -3 -11c-4,-11 -15,-19 -28,-19z"/>
    <path class="fil0" d="M6307 883l62 0c3,0 4,2 4,5l0 0c0,2 -1,4 -4,4l-62 0 0 -9z"/>
    <path class="fil0" d="M6338 910l62 0c2,0 4,2 4,4l0 0c0,3 -2,4 -4,4l-62 0 0 -8z"/>
   </g>
   <g>
    <path class="fil1" d="M7026 811l-88 0c-17,0 -32,-15 -32,-32 0,-14 10,-27 23,-31 5,-17 21,-30 39,-30 16,0 30,9 38,22 15,-2 27,7 28,20 14,4 19,16 19,26 -1,12 -10,25 -27,25zm-58 -79l0 0c-13,0 -25,10 -27,23l-1 5 -5 0c-8,1 -16,10 -16,19 0,10 9,18 19,18l88 0c9,0 13,-6 13,-11 0,-6 -2,-12 -12,-13l-6 -1 0 -9c0,-6 -4,-9 -9,-9 -4,0 -5,0 -5,0l-8 8 -3 -10c-4,-12 -15,-20 -28,-20z"/>
    <path class="fil12" d="M7002 735l62 0c2,0 4,2 4,4l0 0c0,2 -2,4 -4,4l-62 0 0 -8z"/>
    <path class="fil12" d="M7033 761l62 0c2,0 4,2 4,4l0 0c0,3 -2,5 -4,5l-62 0 0 -9z"/>
   </g>
   <g>
    <path class="fil1" d="M8210 207l-89 0c-17,0 -32,-14 -32,-31 0,-14 10,-28 23,-31 5,-18 21,-30 39,-30 16,0 31,9 38,22 15,-3 27,6 29,20 13,4 18,15 18,26 -1,12 -10,24 -26,24zm-59 -78l0 0c-13,0 -25,10 -27,22l-1 6 -5 0c-8,1 -16,10 -16,19 0,9 9,18 19,18l89 0c8,0 12,-6 12,-12 1,-5 -2,-12 -12,-13l-6 0 0 -9c0,-6 -3,-10 -9,-10 -4,0 -4,0 -5,1l-8 8 -3 -11c-4,-11 -15,-19 -28,-19z"/>
    <path class="fil12" d="M8185 131l62 0c2,0 4,2 4,5l0 0c0,2 -2,4 -4,4l-62 0 0 -9z"/>
    <path class="fil12" d="M8216 158l62 0c2,0 4,2 4,4l0 0c0,2 -2,4 -4,4l-62 0 0 -8z"/>
   </g>
   <g>
    <path class="fil1" d="M9112 395l-89 0c-17,0 -32,-14 -32,-31 0,-14 10,-27 23,-31 5,-17 21,-30 39,-30 16,0 31,9 38,22 15,-2 27,7 29,20 13,4 18,16 18,26 -1,12 -10,24 -26,24zm-59 -78l0 0c-13,0 -25,10 -27,23l-1 5 -5 0c-8,1 -16,10 -16,19 0,10 9,18 19,18l89 0c8,0 12,-6 12,-12 1,-5 -2,-12 -12,-13l-6 0 0 -9c0,-6 -4,-10 -9,-10 -4,0 -4,1 -5,1l-8 8 -3 -11c-4,-11 -15,-19 -28,-19z"/>
    <path class="fil12" d="M9087 319l62 0c2,0 4,2 4,5l0 0c0,2 -2,4 -4,4l-62 0 0 -9z"/>
    <path class="fil12" d="M9118 346l62 0c2,0 4,2 4,4l0 0c0,3 -2,4 -4,4l-62 0 0 -8z"/>
   </g>
   <g>
    <path class="fil1" d="M9907 1257l-88 0c-18,0 -33,-14 -33,-31 0,-15 10,-28 23,-32 5,-17 21,-29 40,-29 15,0 30,9 37,22 15,-3 27,6 29,20 13,4 19,15 18,25 0,13 -10,25 -26,25zm-58 -79l0 0c-14,0 -26,10 -28,23l-1 5 -5 1c-8,1 -15,10 -15,19 0,9 8,17 19,17l88 0c8,0 12,-5 13,-11 0,-6 -3,-12 -12,-13l-7 -1 0 -9c0,-5 -3,-9 -9,-9 -4,0 -4,0 -5,1l-8 8 -3 -11c-3,-11 -15,-20 -27,-20z"/>
    <path class="fil12" d="M9882 1181l62 0c3,0 5,2 5,4l0 0c0,3 -2,4 -5,4l-62 0 0 -8z"/>
    <path class="fil12" d="M9913 1207l62 0c3,0 5,2 5,5l0 0c0,2 -2,4 -5,4l-62 0 0 -9z"/>
   </g>
   <g>
    <path class="fil1" d="M241 481l-88 0c-18,0 -33,-15 -33,-32 0,-14 10,-27 23,-31 5,-17 21,-30 40,-30 16,0 30,9 37,22 16,-2 28,7 29,20 13,4 19,16 18,26 0,12 -9,25 -26,25zm-58 -79l0 0c-13,0 -25,10 -27,23l-1 5 -5 0c-9,1 -16,10 -16,19 0,10 9,18 19,18l88 0c9,0 13,-6 13,-12 0,-5 -3,-11 -12,-12l-6 -1 0 -9c0,-6 -4,-9 -10,-9 -4,0 -4,0 -4,0l-8 8 -4 -10c-3,-12 -15,-20 -27,-20z"/>
    <path class="fil12" d="M216 405l63 0c2,0 4,1 4,4l0 0c0,2 -2,4 -4,4l-63 0 0 -8z"/>
    <path class="fil12" d="M247 431l62 0c3,0 5,2 5,4l0 0c0,3 -2,5 -5,5l-62 0 0 -9z"/>
   </g>
   <g>
    <path class="fil1" d="M1465 480l-88 0c-17,0 -32,-14 -32,-31 0,-15 10,-28 23,-32 5,-17 21,-29 39,-29 16,0 30,8 38,22 15,-3 27,6 28,20 14,3 19,15 19,25 -1,13 -10,25 -27,25zm-58 -79l0 0c-13,0 -25,10 -27,23l-1 5 -5 1c-8,1 -16,9 -16,19 0,9 9,17 19,17l88 0c9,0 13,-5 13,-11 0,-6 -3,-12 -12,-13l-6 -1 0 -9c0,-5 -4,-9 -9,-9 -4,0 -5,0 -5,1l-8 8 -3 -11c-4,-12 -15,-20 -28,-20z"/>
    <path class="fil12" d="M1441 404l62 0c2,0 4,2 4,4l0 0c0,3 -2,4 -4,4l-62 0 0 -8z"/>
    <path class="fil12" d="M1472 430l62 0c2,0 4,2 4,5l0 0c0,2 -2,4 -4,4l-62 0 0 -9z"/>
   </g>
   <g>
    <path class="fil1" d="M285 2220l-88 0c-18,0 -33,-15 -33,-32 0,-14 10,-27 23,-31 5,-17 21,-30 39,-30 16,0 31,9 38,22 15,-2 27,7 29,20 13,4 19,16 18,26 0,12 -10,25 -26,25zm-59 -79l0 0c-13,0 -25,10 -27,23l-1 5 -5 0c-8,1 -15,10 -15,19 0,10 8,18 19,18l88 0c8,0 12,-6 13,-12 0,-5 -3,-11 -12,-12l-7 -1 0 -9c0,-6 -3,-9 -9,-9 -4,0 -4,0 -5,0l-8 8 -3 -11c-3,-11 -15,-19 -28,-19z"/>
    <path class="fil12" d="M260 2143l62 0c3,0 5,2 5,5l0 0c0,2 -2,4 -5,4l-62 0 0 -9z"/>
    <path class="fil12" d="M291 2170l62 0c3,0 4,2 4,4l0 0c0,3 -1,5 -4,5l-62 0 0 -9z"/>
   </g>
   <path class="fil2" d="M8136 1268l-116 0c0,-1 1,-2 1,-3l0 -149 112 0 0 147c0,2 1,4 3,5z"/>
   <polygon class="fil9" points="6936,1356 6994,1356 6994,1439 6936,1439 "/>
   <polygon class="fil11" points="6856,1356 6914,1356 6914,1439 6856,1439 "/>
   <polygon class="fil9" points="7097,1356 7155,1356 7155,1439 7097,1439 "/>
   <polygon class="fil11" points="7176,1356 7234,1356 7234,1439 7176,1439 "/>
   <polygon class="fil11" points="7344,1356 7402,1356 7402,1439 7344,1439 "/>
   <polygon class="fil9" points="8736,1356 8795,1356 8795,1439 8736,1439 "/>
   <polygon class="fil9" points="8902,1357 8961,1357 8961,1440 8902,1440 "/>
   <polygon class="fil10" points="8982,1357 9040,1357 9040,1440 8982,1440 "/>
   <polygon class="fil10" points="9140,1357 9199,1357 9199,1440 9140,1440 "/>
   <polygon class="fil9" points="9223,1357 9281,1357 9281,1440 9223,1440 "/>
   <polygon class="fil9" points="9387,1357 9445,1357 9445,1440 9387,1440 "/>
   <polygon class="fil11" points="8443,622 8501,622 8501,719 8443,719 "/>
   <polygon class="fil9" points="8363,622 8422,622 8422,719 8363,719 "/>
   <polygon class="fil11" points="8282,622 8343,622 8343,719 8282,719 "/>
   <polygon class="fil9" points="8202,622 8260,622 8260,719 8202,719 "/>
   <polygon class="fil11" points="8118,622 8182,622 8182,719 8118,719 "/>
   <polygon class="fil9" points="8040,622 8098,622 8098,719 8040,719 "/>
   <polygon class="fil11" points="7955,622 8019,622 8019,719 7955,719 "/>
   <polygon class="fil9" points="7877,622 7935,622 7935,719 7877,719 "/>
   <polygon class="fil11" points="7796,622 7854,622 7854,719 7796,719 "/>
   <polygon class="fil9" points="7715,622 7773,622 7773,719 7715,719 "/>
   <polygon class="fil11" points="7636,622 7694,622 7694,719 7636,719 "/>
   <polygon class="fil18" points="3905,2151 4005,2151 4011,2360 3900,2360 "/>
   <polygon class="fil0" points="3917,1705 3988,1705 3996,1917 3912,1917 "/>
   <polygon class="fil18" points="2507,1705 2578,1705 2586,1917 2502,1917 "/>
   <polygon class="fil0" points="2491,2150 2593,2150 2599,2361 2486,2361 "/>
  </g>
 </g>
</svg>
