<svg xmlns="http://www.w3.org/2000/svg" xml:space="preserve" width="529.167mm" height="118.601mm" version="1.1" style="shape-rendering:geometricPrecision; text-rendering:geometricPrecision; image-rendering:optimizeQuality; fill-rule:evenodd; clip-rule:evenodd"
viewBox="0 0 54830 12289"
 xmlns:xlink="http://www.w3.org/1999/xlink">
 <defs>
  <style type="text/css">
  
    .str0 {stroke:#2B2A29;stroke-width:17.5422}
    .fil2 {fill:none}
    .fil3 {fill:#131515;fill-rule:nonzero}
    .fil0 {fill:#E95419;fill-opacity:0.560784}
    .fil1 {fill:url(#id0)}
   
  </style>
  <linearGradient id="id0" gradientUnits="userSpaceOnUse" x1="27359.8" y1="469.546" x2="27470.3" y2="11408.2">
   <stop offset="0" style="stop-opacity:1; stop-color:#E95419"/>
   <stop offset="1" style="stop-opacity:1; stop-color:#C5091C"/>
  </linearGradient>
 </defs>
 <g id="Layer_x0020_1">
  <metadata id="CorelCorpID_0Corel-Layer"/>
  <g id="_519890592">
   <path class="fil0" d="M54830 10801c0,0 -7816,-2343 -18200,-561 -10384,1781 -18241,2481 -25302,1782 -6680,-662 -10893,-3233 -11328,-3508l0 -8103 54830 0 0 10390 0 0z"/>
   <path class="fil1" d="M54830 10389c0,0 -7816,-2342 -18200,-561 -10384,1781 -18241,2482 -25302,1782 -6680,-662 -10893,-3232 -11328,-3507l0 -8103 54830 0 0 10389z"/>
   <circle class="fil2 str0" cx="21258" cy="6233" r="42"/>
   <g>
    <g>
     <path class="fil3" d="M20730 6459c-2,0 -4,-1 -6,-3 -9,-11 -19,-17 -27,-17 0,0 -1,0 -1,0 -7,0 -14,4 -21,12 -3,3 -7,3 -10,1 -3,-3 -4,-7 -1,-10 10,-12 21,-18 32,-18 0,0 1,0 1,0 13,1 26,8 38,23 3,3 2,8 -1,10 -1,1 -3,2 -4,2z"/>
    </g>
    <g>
     <path class="fil3" d="M20730 6459c-2,0 -4,-1 -5,-2 -3,-2 -3,-7 0,-10 13,-15 26,-23 39,-23 1,0 1,0 1,0 11,0 22,6 32,18 3,3 2,7 -1,10 -3,2 -7,2 -10,-1 -7,-8 -14,-12 -21,-12 0,0 0,0 -1,0 -8,0 -18,6 -29,18 -1,1 -3,2 -5,2z"/>
    </g>
   </g>
  </g>
 </g>
</svg>
