<?xml version="1.0"?>
<svg xmlns="http://www.w3.org/2000/svg" xmlns:xlink="http://www.w3.org/1999/xlink" xmlns:svgjs="http://svgjs.com/svgjs" version="1.1" width="512" height="512" x="0" y="0" viewBox="0 0 512 512" style="enable-background:new 0 0 512 512" xml:space="preserve" class=""><g>
<g xmlns="http://www.w3.org/2000/svg">
	<g>
		<g>
			<path d="M501.333,277.333h-416V74.667C85.333,68.771,80.563,64,74.667,64h-64C4.771,64,0,68.771,0,74.667v362.667     C0,443.229,4.771,448,10.667,448h64c5.896,0,10.667-4.771,10.667-10.667v-74.667h341.333v74.667     c0,5.896,4.771,10.667,10.667,10.667h64c5.896,0,10.667-4.771,10.667-10.667V288C512,282.104,507.229,277.333,501.333,277.333z" fill="#f15b2f" data-original="#000000" style="" class=""/>
			<circle cx="170.667" cy="192" r="64" fill="#f15b2f" data-original="#000000" style="" class=""/>
			<path d="M266.667,256h234.667c5.896,0,10.667-4.771,10.667-10.667C512,180.635,459.365,128,394.667,128h-128     c-5.896,0-10.667,4.771-10.667,10.667v106.667C256,251.229,260.771,256,266.667,256z" fill="#f15b2f" data-original="#000000" style="" class=""/>
		</g>
	</g>
</g>
<g xmlns="http://www.w3.org/2000/svg">
</g>
<g xmlns="http://www.w3.org/2000/svg">
</g>
<g xmlns="http://www.w3.org/2000/svg">
</g>
<g xmlns="http://www.w3.org/2000/svg">
</g>
<g xmlns="http://www.w3.org/2000/svg">
</g>
<g xmlns="http://www.w3.org/2000/svg">
</g>
<g xmlns="http://www.w3.org/2000/svg">
</g>
<g xmlns="http://www.w3.org/2000/svg">
</g>
<g xmlns="http://www.w3.org/2000/svg">
</g>
<g xmlns="http://www.w3.org/2000/svg">
</g>
<g xmlns="http://www.w3.org/2000/svg">
</g>
<g xmlns="http://www.w3.org/2000/svg">
</g>
<g xmlns="http://www.w3.org/2000/svg">
</g>
<g xmlns="http://www.w3.org/2000/svg">
</g>
<g xmlns="http://www.w3.org/2000/svg">
</g>
</g></svg>
