<?xml version="1.0" encoding="UTF-8"?>
<!DOCTYPE svg PUBLIC "-//W3C//DTD SVG 1.1//EN" "http://www.w3.org/Graphics/SVG/1.1/DTD/svg11.dtd">
<!-- Creator: CorelDRAW X7 -->
<svg xmlns="http://www.w3.org/2000/svg" xml:space="preserve" width="3.64173in" height="1.14173in" version="1.1" style="shape-rendering:geometricPrecision; text-rendering:geometricPrecision; image-rendering:optimizeQuality; fill-rule:evenodd; clip-rule:evenodd"
viewBox="0 0 3642 1142"
 xmlns:xlink="http://www.w3.org/1999/xlink">
 <defs>
  <style type="text/css">
    .fil0 {fill:none}
    .fil1 {fill:#0770E3}
    .fil2 {fill:black;fill-rule:nonzero}
  </style>
 </defs>
 <g id="Layer_x0020_1">
  <metadata id="CorelCorpID_0Corel-Layer"/>
  <g id="_1926993331616">
   <rect class="fil0" width="3642" height="1142"/>
   <g>
    <path class="fil1" d="M239 177c-307,258 -219,757 174,878 219,67 436,-21 562,-193 103,-140 118,-341 48,-499 -24,-55 -68,-86 -50,-156 16,-64 59,-72 101,-99 -239,19 -178,493 -178,685 -33,311 -409,272 -536,209 -95,-47 -148,-113 -150,-250 -1,-87 11,-328 -4,-393 -22,-32 -33,-26 -61,-40l340 2c-42,15 -28,6 -61,31 -8,62 -16,416 6,484 77,241 351,189 378,-24l1 -405c1,-45 4,-83 17,-125 13,-44 43,-78 46,-111 -157,-156 -472,-130 -633,6z"/>
    <path class="fil2" d="M1156 697c0,-47 10,-90 29,-130 19,-39 46,-70 80,-94 34,-24 72,-35 116,-35 40,0 77,11 109,33 33,22 58,49 76,80l0 -309 64 0 0 624c0,9 2,16 6,20 4,4 9,7 17,7l0 52c-13,2 -22,3 -29,2 -13,0 -25,-6 -35,-16 -10,-10 -15,-22 -15,-34l0 -49c-20,33 -46,59 -79,78 -34,19 -68,29 -104,29 -34,0 -65,-7 -94,-21 -28,-14 -53,-33 -74,-58 -21,-24 -38,-51 -49,-82 -12,-31 -18,-64 -18,-97zm410 77l0 -154c-8,-23 -21,-44 -39,-63 -19,-19 -39,-34 -62,-45 -23,-11 -46,-17 -68,-17 -27,0 -51,6 -72,17 -21,11 -40,26 -55,45 -16,20 -27,41 -36,66 -8,24 -12,49 -12,74 0,27 5,53 14,77 9,24 22,46 39,64 17,19 36,34 58,44 22,10 46,15 72,15 16,0 33,-3 51,-9 18,-7 34,-16 50,-27 16,-11 30,-24 40,-39 11,-16 18,-32 20,-48zm170 28c0,-32 9,-59 26,-81 18,-23 42,-40 73,-53 31,-12 67,-18 108,-18 24,0 49,1 75,5 25,4 48,10 69,18l0 -43c0,-42 -13,-75 -37,-100 -25,-25 -59,-38 -102,-38 -26,0 -52,5 -78,15 -25,10 -52,25 -79,44l-25 -46c32,-23 64,-39 94,-51 31,-11 63,-16 95,-16 60,0 108,17 143,52 35,35 53,84 53,146l0 230c0,9 2,16 5,20 4,4 10,7 18,7l0 52c-7,1 -13,2 -18,2 -5,1 -9,1 -11,0 -16,0 -28,-6 -36,-15 -8,-10 -12,-20 -13,-31l-1 -37c-22,29 -51,52 -86,67 -35,16 -71,24 -107,24 -32,0 -60,-7 -86,-21 -25,-13 -45,-32 -59,-55 -14,-23 -21,-49 -21,-77zm329 38c7,-9 12,-18 16,-26 4,-8 6,-15 6,-22l0 -72c-22,-9 -44,-15 -67,-19 -23,-5 -46,-7 -69,-7 -46,0 -83,9 -111,27 -29,19 -43,44 -43,76 0,18 5,36 14,52 10,16 24,30 42,40 18,11 39,16 64,16 31,0 59,-6 86,-18 27,-12 47,-28 62,-47zm637 105l-64 0 0 -278c0,-59 -9,-102 -25,-129 -17,-27 -44,-41 -81,-41 -25,0 -50,7 -74,19 -25,12 -46,29 -65,51 -18,21 -32,45 -40,73l0 305 -64 0 0 -500 59 0 0 114c13,-24 30,-45 51,-64 22,-18 46,-32 73,-42 27,-10 55,-15 84,-15 27,0 50,5 69,15 19,10 34,25 45,43 11,19 19,42 25,68 5,27 7,56 7,89l0 292zm368 -20c-5,2 -13,6 -24,11 -11,5 -23,9 -39,13 -15,4 -31,6 -49,6 -18,0 -35,-4 -51,-11 -16,-7 -29,-18 -38,-32 -10,-15 -14,-32 -14,-54l0 -361 -68 0 0 -52 68 0 0 -169 64 0 0 169 113 0 0 52 -113 0 0 343c1,18 8,32 19,41 12,9 25,13 40,13 18,0 34,-3 48,-9 15,-6 24,-10 27,-13l17 53zm75 -186l0 -294 64 0 0 282c0,57 10,100 29,128 19,28 48,42 85,42 25,0 50,-5 73,-17 24,-11 45,-27 63,-48 18,-20 32,-44 41,-72l0 -315 65 0 0 421c0,9 1,16 5,20 4,4 10,7 17,7l0 52c-7,1 -13,1 -18,2 -4,0 -8,0 -12,0 -13,-1 -23,-6 -33,-15 -9,-9 -13,-20 -14,-33l-2 -67c-21,39 -50,69 -87,90 -37,22 -77,33 -119,33 -52,0 -91,-18 -117,-55 -27,-36 -40,-90 -40,-161z"/>
   </g>
  </g>
 </g>
</svg>
