
<svg class="animation__plane" xmlns="http://www.w3.org/2000/svg" xmlns:cc="http://creativecommons.org/ns#" xmlns:dc="http://purl.org/dc/elements/1.1/" xmlns:rdf="http://www.w3.org/1999/02/22-rdf-syntax-ns#" xmlns:svg="http://www.w3.org/2000/svg" data-name="svgi-plane" viewBox="0 0 135.67 49.55"><path fill="#fff" stroke="#464646" stroke-linejoin="round" d="M74.663 45.572h-9.106z" class="svgi-plane--stripe3"></path><path fill="#fff" stroke="#464646" stroke-linejoin="round" stroke-width="1" d="M.75 26.719h23.309z" class="svgi-plane--stripe1"></path><path fill="#fff" stroke="#464646" stroke-linejoin="round" stroke-width="1" d="M11.23 31.82h22.654z" class="svgi-plane--stripe2"></path><path fill="#fff" stroke="#464646" stroke-linejoin="round" stroke-width="1" d="m 53.47597,24.263013 h 68.97869 c 6.17785,0 12.47074,6.758518 12.40872,8.67006 -0.05,1.537903 -5.43763,7.036166 -11.72452,7.056809 l -59.599872,0.201269 c -9.092727,0.03097 -23.597077,-5.992662 -22.178652,-11.794378 1.160348,-4.74789 7.862358,-4.13376 12.115634,-4.13376 z"></path><path fill="#fff" stroke="#464646" stroke-linejoin="round" stroke-width="1" d="M 45.243501,24.351777 37.946312,0.952937 h 7.185155 c 15.37061,20.184725 28.402518,23.28324 28.402518,23.28324 0,0 -27.106129,-0.178562 -28.290484,0.1156 z"></path><path fill="#fff" stroke="#464646" stroke-linejoin="round" stroke-width="1" d="m 42.699738,18.984597 h 10.627187 c 5.753726,0 5.364609,7.799958 0,7.799958 H 42.998828 c -4.96749,0 -5.574672,-7.799958 -0.29909,-7.799958 z m 33.139939,16.164502 h 29.656893 c 6.62199,0 6.49395,6.577892 0,6.577892 H 75.940707 c -8.658596,0 -8.499549,-6.35598 -0.10103,-6.577892 z m 9.693907,6.664592 h 8.86866 c 4.439332,0 4.309293,7.066099 0,7.066099 h -8.756626 z"></path><path fill="#fff" stroke="#464646" stroke-linejoin="round" stroke-width="1" d="m 85.55159,42.447431 c 0,0 -5.282585,0.456211 -6.372912,3.263659 1.335401,2.378073 6.397919,2.528767 6.397919,2.528767 z"></path><path fill="#fff" stroke="#464646" stroke-linejoin="round" stroke-width="1" d="m 133.68903,31.07417 h -7.01411 c -1.26938,0 -2.89286,-1.005314 -3.21496,-3.216179 h 7.50225 z"></path><ellipse cx="113.564" cy="29.448534" fill="#fff" stroke="#464646" stroke-linecap="square" stroke-linejoin="round" stroke-width="1" rx="1.3354006" ry="1.6400863"></ellipse><ellipse cx="107.56219" cy="29.448534" fill="#fff" stroke="#464646" stroke-linecap="square" stroke-linejoin="round" stroke-width="1" rx="1.3354006" ry="1.6400863"></ellipse><ellipse cx="101.56039" cy="29.448534" fill="#fff" stroke="#464646" stroke-linecap="square" stroke-linejoin="round" stroke-width="1" rx="1.3354006" ry="1.6400863"></ellipse><ellipse cx="95.558594" cy="29.448534" fill="#fff" stroke="#464646" stroke-linecap="square" stroke-linejoin="round" stroke-width="1" rx="1.3354006" ry="1.6400863"></ellipse><ellipse cx="89.556793" cy="29.448534" fill="#fff" stroke="#464646" stroke-linecap="square" stroke-linejoin="round" stroke-width="1" rx="1.3354006" ry="1.6400863"></ellipse><ellipse cx="83.554993" cy="29.448534" fill="#fff" stroke="#464646" stroke-linecap="square" stroke-linejoin="round" stroke-width="1" rx="1.3354006" ry="1.6400863"></ellipse><ellipse cx="77.553192" cy="29.448534" fill="#fff" stroke="#464646" stroke-linecap="square" stroke-linejoin="round" stroke-width="1" rx="1.3354006" ry="1.6400863"></ellipse><ellipse cx="71.551392" cy="29.448534" fill="#fff" stroke="#464646" stroke-linecap="square" stroke-linejoin="round" stroke-width="1" rx="1.3354006" ry="1.6400863"></ellipse><ellipse cx="65.549591" cy="29.448534" fill="#fff" stroke="#464646" stroke-linecap="square" stroke-linejoin="round" stroke-width="1" rx="1.3354006" ry="1.6400863"></ellipse></svg>
