<svg height="512pt" viewBox="0 -1 512 511" width="512pt" xmlns="http://www.w3.org/2000/svg"><path d="m208.609375 178.339844-29.203125 27.007812v16.738282h64.753906v-21.121094h-27.238281l11.542969-10.503906c11.773437-10.621094 13.851562-17.777344 13.851562-25.742188 0-15.351562-13.507812-25.28125-32.667968-25.28125-17.429688 0-29.085938 7.621094-34.972657 18.699219l20.546875 10.273437c2.421875-4.847656 7.039063-7.5 11.886719-7.5 5.195313 0 7.851563 2.421875 7.851563 6.347656 0 2.769532-.808594 5.886719-6.351563 11.082032zm0 0"/><path d="m291.945312 141.285156-34.28125 49.636719v17.3125h41.898438v13.851563h26.433594v-13.851563h10.734375v-21.125h-10.734375v-12.347656h-25.625v12.347656h-10.964844l30.472656-45.824219zm0 0"/><path d="m460.847656 225.402344v-20.039063c0-112.960937-91.902344-204.863281-204.863281-204.863281h-1.019531c-112.964844 0-204.863282 91.898438-204.863282 204.863281v20.28125c-28.691406 6.804688-50.101562 32.621094-50.101562 63.359375v68.152344c0 35.914062 29.21875 65.128906 65.128906 65.128906h69.136719v-198.410156h-54.109375v-18.511719c0-96.386719 78.417969-174.804687 174.808594-174.804687h1.019531c96.386719 0 174.804687 78.417968 174.804687 174.804687v18.511719h-53.054687v198.410156h49.210937c-7.3125 17.082032-24.289062 29.085938-44.015624 29.085938h-60.175782v-29.058594h-90.519531c-24.308594 0-44.085937 19.777344-44.085937 44.085938 0 24.3125 19.777343 44.085937 44.085937 44.085937h90.519531v-29.054687h60.175782c36.886718 0 67.847656-25.777344 75.875-60.253907 30.230468-5.625 53.195312-32.179687 53.195312-64.015625v-68.152344c0-31.117187-21.9375-57.191406-51.152344-63.605468zm-430.789062 131.753906v-68.152344c0-13.960937 8.203125-26.042968 20.042968-31.679687v131.515625c-11.839843-5.640625-20.042968-17.71875-20.042968-31.683594zm74.148437-103.222656v138.296875h-24.050781v-138.296875zm188.488281 226.492187h-60.460937c-7.738281 0-14.027344-6.292969-14.027344-14.027343 0-7.734376 6.289063-14.027344 14.027344-14.027344h60.460937zm115.09375-226.492187h23v138.296875h-23zm74.152344 103.222656c0 14.371094-8.691406 26.746094-21.09375 32.15625v-132.464844c12.402344 5.410156 21.09375 17.785156 21.09375 32.15625zm0 0"/></svg>