<?xml version="1.0"?>
<svg xmlns="http://www.w3.org/2000/svg" xmlns:xlink="http://www.w3.org/1999/xlink" xmlns:svgjs="http://svgjs.com/svgjs" version="1.1" width="512" height="512" x="0" y="0" viewBox="0 0 24 24" style="enable-background:new 0 0 512 512" xml:space="preserve" class=""><g><path xmlns="http://www.w3.org/2000/svg" d="m13.97 11.78c.469.469 1.28.141 1.28-.53v-1h6c.414 0 .75-.336.75-.75s-.336-.75-.75-.75h-6v-1c0-.668-.811-1.002-1.28-.53l-1.75 1.75c-.293.293-.293.768 0 1.061z" fill="#f15b2f" data-original="#000000" style="" class=""/><path xmlns="http://www.w3.org/2000/svg" d="m20.03 12.22c-.47-.47-1.28-.137-1.28.53v1h-6c-.414 0-.75.336-.75.75s.336.75.75.75h6v1c0 .669.811.999 1.28.53l1.75-1.75c.293-.293.293-.768 0-1.061z" fill="#f15b2f" data-original="#000000" style="" class=""/><path xmlns="http://www.w3.org/2000/svg" d="m16.937 17.25h-.937v3.75c0 .552-.448 1-1 1h-10c-.552 0-1-.448-1-1v-18c0-.552.448-1 1-1h.5c.552 0 1 .448 1 1s.448 1 1 1h5c.552 0 1-.448 1-1s.448-1 1-1h.5c.552 0 1 .448 1 1v2.451c.485.315.857.768 1.063 1.299h.937v-3.75c0-1.654-1.346-3-3-3h-10c-1.654 0-3 1.346-3 3v18c0 1.654 1.346 3 3 3h10c1.654 0 3-1.346 3-3v-2.451c-.485-.315-.857-.768-1.063-1.299z" fill="#f15b2f" data-original="#000000" style="" class=""/></g></svg>
